<svg xmlns="http://www.w3.org/2000/svg" width="174.034mm" height="36.182mm" fill-rule="evenodd" viewBox="0 0 17403.4 3618.2" shape-rendering="geometricPrecision" text-rendering="geometricPrecision" image-rendering="optimizeQuality" clip-rule="evenodd"><defs><style type="text/css"><![CDATA[
    .fil1 {fill:#FEFEFE}
    .fil0 {fill:#FEFEFE}
    .fil2 {fill:#00AFEF}
    .fil4 {fill:#00598C}
    .fil3 {fill:#008C28}
   ]]></style></defs><g id="Camada_x0020_1"><g id="_2082486468112"><path d="M8897.2 1586.1c.13-9.68 1.1-19.5.27-29.13-9.7-109.87-7.14-220.02-7.4-330.14-.1-47.4-.07-94.78.06-142.17.02-8.25-1.54-16.8 3.88-25.52 4.47-.57 9.97-2.06 15.4-1.84 33.26 1.3 66.68-3.54 99.8 2.72 11.23 32.33 4.47 65.68 4.6 98.42.74 234.2.4 468.37.36 702.56 0 12.56-.08 25.1-.5 37.62-.23 8.13-4.98 12.43-12.94 13.25-1.37.16-2.78.16-4.17.16-29.14-.63-58.28-1.3-87.42-1.96-17.36-22.33-24.06-49.66-34.28-75.2-44-109.8-87.92-219.63-130.3-330.07-20.4-53.24-37.23-107.8-55.85-161.75-3-8.76-5.06-18.34-15.75-26.57-2.75 29.3.86 55.4 3.42 81.3 4.26 43.06 5.98 86.2 6.1 129.4.37 117.1.14 234.18.12 351.3 0 6.95-.03 13.94-.43 20.86-.46 8.14-5.08 12.44-13.24 12.5-18.1.16-36.26 1.02-54.34.03-17.58-.95-38.9 7.9-51.74-5.75-11.23-12-4.17-32.05-4.18-48.5-.27-249.5-.2-499.03-.2-748.56 0-11.17-.2-22.3.13-33.44.5-16.67 1.8-18.06 20.2-18.35 26.5-.38 53 .44 79.48-.35 14.87-.44 21.8 5.6 27.18 19.55 32.1 83.07 65.17 165.76 98.23 248.46 33.57 84 68.1 167.6 94.12 254.4.75 2.5 3.04 4.6 4.6 6.87 1.04 24.86 10.93 47.4 18.13 64.37-1.98-17.4 2.48-41.22-3.33-64.47zm4259.36 324.6c0-285.63 0-567 0-848.12 7-7.2 15.75-5.37 23.9-5.34 62.74.2 125.5.44 188.24 1.07 30.92.3 60.9 6.54 89.86 17.26 64.75 24.05 101.24 71.05 111.84 138.88 6.1 38.97 4.87 77.98-1.46 116.64-8.84 54.3-37.14 95.3-86.96 120.4-7.4 3.7-14.8 7.27-23 11.32 6.25 13 18.3 12.65 27.67 16.73 45.2 19.83 80.62 49.5 97.46 97.5 3.7 10.5 7 21.35 8.6 32.3 6.47 44.37 7.9 89.17-.43 133.27-16.94 89.6-73.47 140.96-160.9 160.26-17.63 3.9-35.8 7.3-53.77 7.5-72.42.85-144.82.34-221.04.34zm121.67-244.37c0 43.05 0 86.07.04 129.13 0 1.4.1 2.78.1 4.18-.18 9.9 4.82 15.75 14.56 16.22 30.58 1.43 61.25 1.17 91.34-4.55 47.73-9.06 75.17-37.47 84.5-85.7 7.2-37.2 7.33-74.5.2-111.74-8.28-43.4-32.86-72.16-75.53-85.42-28.3-8.8-57.23-10.34-86.48-9.87-28.18.47-28.48.47-28.67 26.96-.28 40.27-.08 80.57-.08 120.8zm.1-377.4c0 40.43 0 80.86 0 121.28 0 9.83 4.18 15.8 14.62 16.1 25.13.7 49.95-.54 74.7-6.43 39.23-9.33 63.9-33.37 74.02-71.46 11.62-43.74 12.8-88.06 2.14-132.4-7.6-31.77-27.2-50.1-59.05-57.5-30.3-7.1-60.82-7-91.5-6.63-10.24.16-14.9 5.82-14.9 15.8 0 40.4 0 80.84-.02 121.27zm-2727.65 228c48.32 38.9 63.3 92.74 76.85 146.83 18.6 74.28 35.83 148.9 53.4 223.47 1.58 6.64 1.4 13.7 2.14 21.58-21.18 6.44-42.1 3.05-62.62 2.9-22.12-.16-44.5 3.73-66.4-2.6-10.67-19.93-11.58-42.3-15.82-63.84-10.76-54.7-21.12-109.45-32.52-164-4.54-21.76-10.8-43.2-17.46-64.4-5.46-17.34-14.3-33.1-24.96-48.02-12.44-17.43-27.38-27.17-49.6-22.24-6.77 1.5-13.8 1.95-20.74 2.68-30.13 3.26-26.2 6.14-26.22 30.97-.1 96.23.07 192.46-.18 288.7-.05 13.63 3.02 27.83-5.08 42.92-33.9 0-68.66.04-103.43 0-8.12-.03-12.93-3.95-13.24-12.3-.36-9.7-.55-19.5-.55-29.23-.03-258-.03-516.02-.02-774 0-8.38.35-16.77.07-25.1-.4-11.3 6-14.06 15.72-13.97 69.7.54 139.43.3 209.14 1.68 36.57.72 71.53 10.6 104.85 25.78 38.8 17.68 66.18 46.57 80.18 86.55 25.13 71.68 27.98 144.76 6.93 217.86-13.6 47.2-42.52 84.15-83.6 111.33-7.77 5.15-15.9 9.77-26.8 16.45zm-184.14-206.5c-.02 0-.06 0-.1 0 0 37.5 0 75.05.04 112.57.02 8.3.1 16.67.66 25 .4 6.12 4.38 11.16 10.34 10.52 31.7-3.3 63.77-4.55 94.33-14.96 38.5-13.13 63.78-39.07 72.26-79.12 9.32-43.94 8.7-88.4.7-132.45-6.63-36.53-28.65-58-65.52-66.55-31.74-7.37-63.5-5.8-95.38-5.92-13.57-.06-17.08 3.58-17.2 17.5-.3 44.44-.1 88.92-.1 133.4zm-3753.2-253.2c36.8 1.15 81.2.4 125.57 7.98 63.34 10.84 110.2 44.37 144.9 96.63 25.8 38.82 40.2 82.35 48.84 127.87 11.2 59.05 15.17 118.77 15.54 178.8.4 68.38-3.44 136.43-15.43 203.9-5.88 33.1-16.4 64.66-30 95.28-34.4 77.48-93.1 123.28-177.03 136.26-30.3 4.7-60.64 8.54-91.47 8.2-41.8-.52-83.6-.2-125.44-.23-8-.02-13.14-3.5-13.6-11.9-.46-8.33-.6-16.7-.6-25.03-.03-260.64-.06-521.27 0-781.9 0-40.16-3.3-35.6 35.75-35.8 25.1-.12 50.2-.02 83-.02zm3.5 426.3c0 86.38-.7 172.77.2 259.16.78 74.04-14.56 63.82 68.33 60.5 1.38-.06 2.78-.2 4.15-.44 51.13-7.85 86.85-35.43 105.84-83.7 9.7-24.75 15.7-50.62 18.97-76.85 13.33-106.9 14.3-213.96.04-320.82-5.36-40.22-15.56-79.26-40.9-112.57-17.66-23.3-40.04-38.74-69.58-41.46-22.16-2.02-44.43-3.32-66.66-3.64-17.18-.22-19.8 3-20.3 18.9-.33 9.73-.12 19.5-.12 29.22 0 90.56 0 181.13 0 271.7zm3481.6 1.7c-.5 79-2.2 154.2-18.65 228.1-7.9 35.47-18.96 69.9-36.4 101.84-36.15 66.27-91.4 103.2-167.67 106.76-26.5 1.24-52.67.3-78.9-5.02-58.85-11.9-100.26-46.02-128.13-97.86-27.35-50.9-41.97-106-49.36-162.86-14.8-113.76-14.72-227.73-.25-341.55 6.16-48.53 19.12-95.38 38.1-140.52.54-1.3 1.3-2.5 1.84-3.76 36.1-85.1 100.97-126.25 192.8-126.2 26.6 0 52.6 4.38 78.27 11.18 24.8 6.56 46.07 19.24 64.73 36.64 25.87 24.07 45.56 52.42 59.27 84.97 17.4 41.33 27.47 84.5 33.84 128.76 8.77 60.86 9.68 122.1 10.5 179.55zm-123.54 4.67c-.54-73.92-1.74-140.68-12.83-206.82-6.03-35.88-16.37-70.17-34.37-102.22-29.4-52.22-112.6-54.06-144.38-4-13.57 21.37-23.6 44.08-29.9 68.45-8.7 33.77-13.88 68.2-16.3 102.9-6.06 86.2-5.87 172.5-.1 258.67 2.52 37.5 7.86 74.75 17.33 111.22 8.13 31.3 21.4 60.35 44.08 84.1 28.96 30.38 62.7 34 97.83 11.43 15.7-10.13 26.4-24.33 35.4-40.3 17.4-30.85 25.07-64.6 30.73-99.05 10.37-63.4 10.9-127.46 12.5-184.37zm2872.26-431.27c41.74 0 79.08 0 115.62 0 9 6.64 6.72 15.5 6.72 23.38.15 206.34.2 412.7.05 619-.03 29.33-2.97 58.35-11 86.8-20.52 72.87-67.67 117.98-142 130.57-48.16 8.2-97.07 7.27-145.36-4.24-71.3-16.96-113.3-62.2-129.4-132.3-5.93-25.7-9.56-52-9.5-78.7.2-204.96.1-409.9.07-614.82 0-4.16-.1-8.37.06-12.52.65-14.96 2.93-18.1 16.2-18.25 30.67-.4 61.34-.2 92.03-.1 9.47 0 15.9 3.58 15.86 14.4-.05 11.14.16 22.3.16 33.44 0 196.58-.03 393.15.04 589.73.03 15.3-.5 30.83 1.56 45.9 4.4 31.94 17.3 59.4 50.1 71.14 35.85 12.8 71.43 12.65 103.7-10.35 16.55-11.8 24.94-29.66 29.32-49.2 4.9-21.9 5.9-44.08 5.88-66.47-.24-193.8-.14-387.56-.14-581.35 0-13.87 0-27.7 0-46.07zm-1794.06 853.1c12.07-50.88 22.45-95.58 33.33-140.15 54.84-224.6 109.84-449.18 164.82-673.75 1.97-8.13 5-16.05 6.28-24.27 1.77-11.58 7.47-16.58 19.42-16.48 39.04.4 78.1.54 117.14-.03 12.15-.2 17.34 5.37 19.96 16.2 13.83 56.84 27.9 113.6 41.84 170.4 52.8 215.1 105.54 430.17 158.34 645.23 1.6 6.58 5.06 12.9.14 22.74-38.72.1-79 .25-119.26.32-10.3 0-14.58-6.87-16.34-15.7-8.92-45.1-17.64-90.25-26.54-135.33-1.9-9.56-4.05-19.05-6.25-28.54-1.84-7.9-7.1-11.23-15.08-11.23-62.76 0-125.54-.07-188.3-.03-9.7 0-14.9 4.77-16.78 14.6-7.86 41.03-16.2 82-24.4 123-2.78 13.63-5.8 27.23-8.43 40.93-1.52 7.94-5.83 12.1-14 12.1-40.22 0-80.5 0-125.92 0zm193.6-292.76c56.03 0 105.97.07 155.92-.1 6.78-.03 13.6-1.32 20.42-2.05-4.16-37.96-79.06-437.28-86.46-460.66-2.42 4.05-5.75 7.24-6.34 10.9-23.8 149.42-54.9 297.5-83.53 451.9zm4140.3 292.08c-46.56 0-88.22 0-131.7 0-7.2-11.64-8.97-25.24-11.53-38.62-8.45-43.75-17-87.47-25.75-131.2-3.83-19.04-4.86-20.08-24.92-20.18-57.16-.28-114.3-.25-171.46-.03-22.83.1-23.83 1.08-27.96 21.9-8.94 45.07-17.7 90.15-26.38 135.3-2.1 10.94-2.9 22.17-10.52 31.9-3.6.58-7.65 1.88-11.67 1.75-38.85-1.1-77.84 3.2-116.6-2.43-1.73-39.26 13.04-75.4 21.98-112.43 56.47-234.1 113.87-468 170.95-702 1.96-8.1 3.97-16.2 5.9-24.3 1.74-7.5 6.05-13.07 13.88-13.17 43.25-.25 86.45-.25 129.66.13 5.8.06 10.03 4.62 11.67 10.37 1.54 5.35 2.28 10.92 3.64 16.33 65.5 266.3 131.1 532.57 196.56 798.9 1.96 7.97 2.55 16.3 4.27 27.8zm-370.3-296.57c37.77 6.48 146.05 6 177.4-.86-7.1-38.1-14.16-76.27-21.32-114.45-7.42-39.67-14.97-79.3-22.43-118.97-7.2-38.32-14.54-76.56-21.48-114.93-6.93-38.22-11.1-77.03-24.68-124.26-26.73 165.18-57.84 319.18-87.5 473.5zm-2901.28 29.45c-6.06 12.3-3.35 25.05-3.38 37.4-.32 64.08-.15 128.17-.18 192.27 0 8.35-.06 16.7-.44 25.05-.35 8.13-5.04 12.94-13 13-32.05.3-64.1.2-96.12.26-10.6.05-14.54-6.12-14.58-15.83-.05-8.35-.1-16.7-.1-25.1 0-257.78-.05-515.57.1-773.36 0-12.4-2.2-25.1 2.7-37.6 3.92-.82 7.96-2.43 12-2.43 59.92.15 119.84.47 179.73.85 23.92.17 47.08 5.45 69.7 12.4 70.78 21.7 116.9 69.1 137.48 139.55 25.16 86.17 23.93 173.26 1.6 259.94-17.15 66.68-59.65 112.1-121.8 139.57-33.3 14.7-68.23 23.85-104.62 27.3-16.47 1.55-33.34.7-49.07 6.77zm-3.6-289.6c0 48.6-.2 97.23.04 145.85.3 59.13-6.05 51.8 51.6 42.87 61.08-9.46 99.85-44.4 111.48-107.24 11-59.5 9.1-118.77.25-178.12-1.65-10.9-4.64-21.7-7.75-32.33-8.9-30.5-29.66-48.78-59.4-58.9-23-7.84-46.4-7.84-70-7.66-25.67.15-26.06.34-26.15 24.64-.23 56.94-.08 113.9-.08 170.9zM8071.34 1058.5c119.8 0 236.76 0 356.6 0 2.58 36.8-2.67 71.8-6.8 109.3-19.44 0-37.46 0-55.47 0-48.8 0-97.6-.16-146.42.07-28.12.15-28.5.44-28.63 26.85-.3 50.2-.1 100.38-.1 150.6 0 17.92 0 35.9 0 54.74 35.52 6.52 68.9 2.56 102.06 3.26 33.4.7 66.85.16 101.3.16 10.14 15.94 5.38 32.96 5.54 48.84.16 16.45 7.28 36.73-3.6 48.6-12.53 13.62-34.1 5.34-51.63 5.7-44.6.8-89.25.08-133.87.52-16.4.16-19.56 3.42-19.6 19.74-.25 83.64-.32 167.32-.03 250.96.1 21.1 2.35 23.06 24.98 23.2 58.57.3 117.13.24 175.7.08 40.16-.12 36.73-.47 36.8 35.75.02 13.98-.18 27.9.03 41.85.5 33.85-1.06 33.4-31.25 33.34-100.4-.12-200.8 0-301.2-.12-8.1 0-16.65 1.86-24.13-3.26-4.6-32.24-5.1-805.7-.26-850.18zm-965.87 2.4c7.75-5.15 16.34-3.66 24.56-3.66 101.83-.1 203.67-.06 305.48-.06 5.6 0 11.18.15 16.76.3 8.14.23 13.3 4.15 12.84 12.63-1.66 29.25-3.6 58.45-5.6 87.65-.46 6.68-5.28 9.36-11.22 9.58-11.15.45-22.3.55-33.46.55-55.8.06-111.6-.13-167.38.15-17.88.1-20.97 2.63-21.03 17.75-.24 66.97-.22 133.9 0 200.88.05 13.73 2.97 16.45 17.95 16.54 50.22.28 100.42.12 150.64.18 9.75.03 19.54.07 29.26.64 6.25.37 10.35 4.58 10.42 10.7.28 29.12.12 58.32.12 85.9-10.3 8.52-20.42 6.2-29.95 6.24-47.42.22-94.85.1-142.27.16-8.35 0-16.7.16-25.03.82-6.15.53-9.86 4.65-10.82 10.6-.66 4.08-.48 8.32-.48 12.52 0 83.68 0 167.38.02 251.06 0 5.62 0 11.3 5.82 16.63 11.66 4.84 25.77 2.22 39.57 2.3 58.58.3 117.17.23 175.75.14 10.5 0 15.04 4.73 14.97 15.04-.15 26.5.25 53.02-.17 79.5-.22 13.47-3.33 15.82-18 16.38-5.57.2-11.16.06-16.74.06-96.24 0-192.5.03-288.74-.04-8.35 0-16.72-.12-25.04-.76-6.18-.44-10.22-4.3-10.7-10.5-.68-8.35-.84-16.73-.84-25.05-.05-262.25-.07-524.5.08-786.72 0-9.42-2.43-19.4 3.2-28.1zm2403.46 113.55c-17.16-4.75-29.08-8.04-41-11.4-29.7-8.32-59.8-13.34-90.77-11.82-50.7 2.46-86.24 34.16-94.2 83.92-7.17 44.83.9 85.8 30.13 121.76 13.2 16.3 27.6 31.37 43.5 45.04 21.16 18.15 42.16 36.47 63.5 54.4 88.2 73.97 116.33 169.95 103.48 281.05-1.3 11.03-2.96 22.13-5.6 32.95-17.35 70.45-58.7 119.52-129.65 139.57-74.54 21.1-148.97 14.98-222.8-5.4-8-2.2-10.87-7.87-10.9-15.44-.15-27.86-.37-55.73-.1-83.6.08-10.35 5.18-13.45 16.88-11.02 23.17 4.82 46.28 9.85 69.4 14.75 20.67 4.4 41.6 4.78 62.47 2.94 58.82-5.22 93.47-41.47 98.2-100 5.1-63.14-16.17-114.45-64.6-155.3-29.84-25.1-59.6-50.5-87.65-77.56-75.94-73.3-103.16-162.03-85.1-266.45 14.5-83.77 64.04-133.8 142.5-157.77 60.5-18.47 121.24-13.7 181.08 4.6 20.1 6.13 20.9 8.22 21.13 29.83.3 26.37.07 52.72.07 84.96zm-1911.03-113.8c31.8-4.36 288.3-5.65 350.95-1.77 8.1 6.43 4.4 15.12 3.56 22.88-1.3 12.43-4.4 24.7-5.7 37.14-6.53 61.17-1.96 49.6-56 50.4-44.56.68-89.15.15-133.75.15-11.05 0-22.1 0-31.94 0-2.43 4.74-4.7 7.08-4.7 9.45-.44 69.63-.6 139.3-.94 208.92-.05 10.34 4.63 15.4 14.84 15.43 47.36.07 94.76.07 142.13.13 12.53.03 25.07.03 37.6.3 7.77.12 13.83 3.53 13.98 11.85.5 26.45.5 52.92.3 79.37-.05 6.1-4.07 10.63-10.2 11.07-11.07.82-22.25.92-33.4.98-48.74.1-97.5-.12-146.3.26-16.5.1-18.8 2.58-18.82 19.9-.22 103.14-.12 206.24-.14 309.37 0 19.48.26 39-.2 58.52-.3 13.75-3.34 16.76-17.55 16.92-29.26.38-58.53.38-87.8 0-16.1-.2-18.1-2.78-18.7-20.37-.3-8.35-.1-16.73-.1-25.08 0-255-.04-510 .1-765.02.03-13.64-2.53-27.62 2.8-40.77zm4117.52 1598.68c-46.26-106.58-92.83-205.72-135.82-308.05-.3 11.23-1.38 22.52-.75 33.72 6.63 121.16-.75 242.32-1.05 363.45 0 4.17.13 8.38-.27 12.55-.86 8.2-5.98 12.06-13.9 12.12-22.2.13-44.47.03-65.63.03-8.23-11.55-5.6-22.87-5.24-33.78 5.84-179.62 11.72-359.2 17.6-538.77.15-4.18-.03-8.38.3-12.56.55-7.9 4.47-12.87 12.8-13.3 5.56-.27 11.14-.5 16.7-.4 55.54.92 43.8-7.56 64.35 44.42 32.23 81.5 64.27 163.08 96.5 244.57 3.9 9.8 5 21.35 15.66 27.7 12.06-9.45 13.54-24.3 18.6-36.84 31.54-78.8 62.3-157.9 93.3-236.9 4.08-10.35 7.76-20.9 12.38-31 2.9-6.34 7.3-11.96 15.55-11.74 20.7.53 41.54-2.63 63.8 2.62 2.2 44.82 5 89.14 6.45 133.55 4.62 143.4 8.75 286.83 13.03 430.23.2 6.96.17 13.95-.28 20.85-.4 6-3.48 10.3-9.93 11.1-2.75.4-5.57.5-8.32.46-79.7-1.87-65.16 13.76-67.52-64.32-2-65.42-3.58-130.87-4.18-196.35-.35-37.58 1.7-75.17 2.3-112.78.15-8.2-1-16.45-2.28-24.58-.27-1.77-3.45-4.02-5.56-4.34-2.05-.3-5.65.87-6.54 2.52-3.35 6.03-6.24 12.43-8.64 18.9-29.58 81.15-65.94 159.42-99.6 238.82-3.23 7.6-7.25 14.84-13.78 28.1zm3071.26-1484.35c-34.18-11.67-61.7-20.94-90.98-23.16-57.73-4.36-84.95 10.8-110.93 61.72-19.23 37.68-29.62 78-34.92 119.58-13.46 105.44-14.03 211.07-.38 316.57 4.46 34.6 12.4 68.46 27.62 100.16 7.22 15.1 15.53 29.58 27.54 41.57 14.43 14.36 31.34 22.65 52.1 22.6 29.45-.1 58.26-4.06 86.3-13.14 12.93-4.18 25.82-8.55 38.9-12.85 8.76 11.6 4.92 23.03 5.6 33.6.7 11.1.25 22.26.1 33.4-.13 11.13-.18 22.27-1 33.37-.44 6.3-6.06 9.08-11.1 11.1-65.47 26.17-132.66 32.94-200.04 10.45-46.94-15.7-79.8-49.77-102.02-93.7-20.9-41.3-33.78-85.4-41.85-130.7-17.46-97.86-19.9-196.37-11.67-295.42 4.97-60 15.9-118.47 36.36-175.16 8.05-22.3 17.47-43.95 29.5-64.4 41.8-71.26 105.4-105 186.63-106.1 33.4-.43 66.65 3.68 97.84 17.8 11.13 5.08 17.93 11.7 17.5 25.1-.83 27.56.63 55.2-1.13 87.57zm-927.14-117.4c6.72 17.1 3.7 32.56 3.73 47.62.24 216 .07 432.03.24 648.06.04 50.5-6.4 45.84 47.63 46.03 40.4.1 80.82-.05 121.24.33 11.64.1 15.86 4.23 14.68 14.9-3.17 29.03-7.03 58-10.92 87-.82 6.13-5.38 9.38-11.53 9.93-4.17.34-8.34.6-12.5.62-83.65.03-167.26.12-250.87-.1-19.6-.06-21.16-2.1-21.84-21.6-.3-8.4-.08-16.74-.08-25.12 0-253.62-.03-507.26 0-760.9 0-11.14.08-22.3.2-33.44.05-8.14 3.9-13.23 12.26-13.3 36.1-.15 72.18-.06 107.74-.06zm-3026.77 852.12c-8.4-14-4.5-29.7-4.52-44.67-.27-250.77-.2-501.54-.17-752.27 0-13.92.1-27.87.2-41.8.05-8.16 3.96-13.38 12.3-13.38 37.4 0 74.85-2.8 111.2 1.56 6.52 10.5 4.14 20.4 4.16 29.83.15 261.93.08 523.83.16 785.77 0 40.74.84 37.48-39.66 37.48-25.06-.03-50.14-.06-75.2-.28-2.68-.03-5.35-1.4-8.47-2.25zm3316.2 2c-4.52-35.64-4.9-808.2-.5-853.58 20.06-.3 40.6-.76 61.1-.88 19.35-.1 38.7.12 56.08.22 8.05 11.74 5.5 21.7 5.5 31.06.14 262.13.1 524.22.16 786.3 0 39.18 1.1 37.4-35.65 37.2-29.04-.08-58.1.4-86.66-.33zM9652.4 2325.75c3.75-7.25 1.17-18.35 1.27-28.86.4-40.38 0-80.78.35-121.1.12-14.1 3.68-17.2 16.98-18.2 1.4-.1 2.8-.1 4.18-.06 79.4 1.52 66.8-12.75 67.08 64.28.62 171.24.1 342.5.27 513.77.03 41.47.1 37.7-39.35 37.86-5.57 0-11.16.1-16.7-.22-7.82-.48-11.87-5.44-15.3-12.1-9.76-18.9-10.2-19.06-26.77-7.13-32.1 23.2-66.82 31.57-106.33 23.86-38.8-7.53-65.34-29.42-82.7-63.56-10.75-21.12-18.28-43.5-22.6-66.93-12.52-67.8-13.07-135.52 1.34-203.1 4.4-20.58 12.44-39.82 22.4-58.23 37-68.4 110.92-92.87 181.7-60.35 3.58 1.62 6.75 5.54 14.2.04zm1.57 218.9c0-30.58 0-61.2 0-91.83-.02-12.5.5-25.05-.44-37.5-.4-5.08-2.85-11.15-6.47-14.57-27.4-25.84-81.77-21.82-105.5 7.25-11.8 14.4-17.82 31.4-21.88 49.06-12 52.14-12.82 104.78-3.94 157.4 2.97 17.76 6.68 35.76 13.14 52.46 13.42 34.6 46.25 49.2 81.65 37.56 9.1-3 17.52-8.3 26.06-12.94 11.8-6.4 17.95-15.4 17.62-30.02-.85-38.95-.28-77.9-.26-116.86zm1023.3-214.9c.05-30.8.1-59.84.13-88.85.05-22.27-.04-44.54.23-66.8.1-9.34 3.84-16.3 14.48-16.4 19.5-.15 39-.2 58.5.07 10.26.12 14.55 6.36 14.6 16.07.1 8.35.14 16.74.14 25.05 0 178.2 0 356.4 0 534.57 0 6.96.17 13.95-.1 20.88-.72 16.7-2.53 18.38-20.04 19.08-4.17.16-8.42-.5-12.5.12-24.28 3.83-40.52-4.04-43.38-29.8-11.12-1.5-16 6.3-22.45 11.04-37.7 27.6-79.07 32.9-122.82 18.85-29.17-9.4-49.78-29.7-63.92-56.7-17.03-32.48-26.4-67.6-29.94-103.6-5.17-52.66-6.14-105.53 4.72-157.98 4.56-21.98 11.78-42.96 21.6-62.9 36.3-73.6 110.67-99.92 186.12-66.48 3.5 1.5 7.5 1.95 14.63 3.75zm.23 212c0-6.93 0-13.9 0-20.82-.03-33.37 0-66.7-.13-100.06-.03-8.5-1.8-16.16-9.28-21.9-36.37-27.96-89.88-17.93-111.28 22.15-7.1 13.3-12.2 28.2-15.2 42.96-11.88 57.93-11.04 115.98 1.83 173.68 2.4 10.8 5.62 21.57 10.08 31.63 13.8 31 42.3 44.94 75 36.33 10.55-2.78 20.36-8.57 30.25-13.48 13.83-6.93 19.18-18.16 18.9-33.85-.67-38.86-.2-77.74-.2-116.65zM7397.63 2773.3c-5.25-11.1-9.9-20.96-14.43-30.52-10.2.86-15.33 8.1-21.86 12.98-57.77 43.27-160.9 35.77-194.83-59.57-9.84-27.73-16.93-55.83-20.5-85-6.44-52.95-5.1-105.65 5.2-157.9 4.3-21.84 12.7-42.53 22.3-62.75 36-75.88 121.74-94.58 179.82-67.38 16.4 7.7 19.98 5.22 20.73-11.32.46-9.7.25-19.5.27-29.23 0-33.44-.23-66.84.08-100.25.2-23.63.95-24.93 22.38-24.58 75.76 1.3 63.32-13 63.6 63 .66 167.07.22 334.16.2 501.3 0 11.12.27 22.25-.13 33.4-.54 14.5-3.16 17.32-16.78 17.7-15.26.35-30.52.1-46.02.1zm-23.18-230.2c0-39 0-78.03 0-117.07 0-1.4-.12-2.8-.03-4.18.64-8.82-1.67-16.35-8.95-22.1-37.6-29.8-92.43-18.86-114.47 23.33-4.44 8.55-7.53 18-9.9 27.4-15.64 61.9-14.8 124.07-1.65 186.27 2.28 10.8 5.25 21.73 9.6 31.85 13.62 31.64 41.3 45.46 74.6 37.77 12.33-2.84 23.3-8.85 33.97-15.63 11.46-7.27 17.46-15.97 17.13-30.52-.9-39-.3-78.05-.3-117.1zm6231.33 230.12c-27.17 0-49.36 0-71.57 0-10.5-.04-14.66-6.14-14.8-15.82-.1-8.35-.1-16.7-.1-25.06 0-178.32 0-356.64 0-534.9 0-8.38-.18-16.77.2-25.1.3-7.55 3.27-13.84 11.92-14 20.9-.4 41.8-.5 62.66-.28 6.17.02 10.36 4.2 10.85 10.28.8 9.7.84 19.48.85 29.22.08 44.58 0 89.15.14 133.72.03 5.5.87 11.04 1.86 16.5.97 5.2 6.94 6.34 9.44 5.05 8.6-4.43 16.64-10.06 24.58-15.73 32.46-23.1 68.86-28.37 107.42-24.07 33.75 3.8 56.47 22.43 68.88 53.24 6.77 16.77 10.66 34.55 10.7 52.96.06 111.4.34 222.86.25 334.3 0 17.63-2.03 19.3-19.27 19.65-20.78.38-41.6.1-61.4.1-8.78-14.96-5.5-29.2-5.54-42.8-.28-89.15-.2-178.3-.1-267.44.04-16.73-.4-33.3-4.3-49.76-3.4-14.33-12.7-21.54-26.22-22.55-10.97-.83-22.5-.6-33.15 1.86-13.45 3.1-26.73 7.92-39.2 13.8-38.62 18.26-34.02 16.5-34.05 52.74-.06 89.18-.02 178.32-.02 267.47 0 13.83 0 27.63 0 46.6zm-5186.13-356.37c2 6.74 4.2 10.7 4.17 14.62-.63 70.42 10.63 56.85-55.27 58.24-25.07.55-50.17.27-75.27.2-10.7-.02-14.42 5.83-14.4 15.63.03 57.17-.16 114.3.08 171.46.06 14.74 2.5 17.2 16.7 17.36 34.86.38 69.7.2 104.54.25 9.76.05 19.53-.1 29.27.33 7.9.3 12.98 4.68 13.75 12.65.67 6.9.5 13.9.5 20.85-.02 50.8 3.13 44.96-44.7 45.1-57.15.2-114.3.04-171.46.04-6.96 0-13.93-.03-20.9-.12-9.6-.16-15.82-4.34-16.37-14.6-.3-5.55-.3-11.12-.3-16.72-.03-178.4-.03-356.8 0-535.26 0-6.92.16-13.88.83-20.8.62-6.1 4.12-10.26 10.5-10.96 5.5-.6 11.08-.9 16.63-.9 66.9-.07 133.8-.07 200.72 0 5.54 0 11.35-.2 16.54 1.33 3.33 1 6.32 4.65 8.43 7.8 1.37 2.07 1.45 5.45 1.13 8.1-2.26 19.24 4.06 43-8.23 56.6-12.87 14.24-36.7 4.65-55.63 5.4-27.83 1.12-55.74.1-83.62.45-17.52.2-18.3.98-18.4 19.77-.26 41.86-.26 83.65.02 125.47.1 14.8 2.55 17.37 16.43 17.57 30.66.33 61.32.17 92 .17 10.9 0 21.8 0 32.28 0zm4659.75 127.87c0-61.34 0-122.68.02-183.98 0-9.78.06-19.52.5-29.26.24-6.33 4.05-10.32 10.3-10.83 8.3-.7 16.67-.88 25-.85 27.4.22 34.17-3.54 43.97 26.5 3.52 10.9 8.53 11.34 19.07 5 8.33-5.02 16.26-10.72 24.53-15.87 30.63-19.1 64-25.8 99.86-23.63 37.16 2.2 70.07 21.86 81.98 70.64 3.93 16.07 5.27 33.12 5.35 49.73.44 104.5.23 209.07.2 313.62-.05 5.5-.27 11.12-1.06 16.62-.85 6.04-4.65 9.78-10.82 10.6-2.75.4-5.55.53-8.33.47-79.47-1.65-66.2 13.12-66.9-64.4-.78-82.27-.07-164.5-.3-246.77-.04-15.28-.64-30.68-2.46-45.87-1.63-13.73-10.34-23.28-24.17-25.18-38.02-5.16-70.95 9.8-102.6 28.28-4.96 2.88-5.9 9.1-5.95 14.86-.05 9.75-.13 19.52-.13 29.27 0 89.2 0 178.4 0 267.62 0 9.75 0 19.52-.5 29.23-.44 8.17-5.45 12.6-13.4 12.66-20.87.17-41.76.1-62.65-.4-6.23-.1-10.02-4.75-10.5-10.73-.8-9.7-1-19.46-1-29.2-.1-62.7-.07-125.46-.07-188.16zm1230.47-8.92c1.28-31.38 2.07-69.15 13.1-105.5 4.82-15.9 10.12-32.2 18.5-46.37 24.87-42.05 60.74-68.5 111.16-71.12 13.9-.7 27.9-.93 41.73-.05 62.32 4.05 103.2 36.86 125.42 94.5 12.73 32.93 17.14 67.54 19.2 102.3 2.46 41.76 1.74 83.68-6.28 125.02-2.93 14.96-6.2 30.05-11.14 44.48-25.05 73.1-82 106.64-159.1 101.4-65.7-4.44-111.6-37.85-133.37-102.54-14.97-44.37-19.2-89.64-19.24-142.1zm242.97 6.27c-1.37-25.22-2.4-47.43-3.84-69.63-1.36-21.04-6.76-41.16-15.93-60.08-11.37-23.4-31.18-35.87-56.66-36.12-25.05-.26-46.47 9.36-57.85 33.56-5.26 11.23-9.95 23.06-12.64 35.08-12.57 56.37-11.35 113.3-4.17 170.1 2.07 16.4 8.08 32.3 12.47 48.34 3.4 12.37 10.35 22.68 19.22 31.8 25.8 26.47 58.87 26.4 84.35-.52 11.77-12.4 18-27.74 23-43.87 11.32-36.48 9.56-74.28 12.07-108.66zm-4382.9-1.9c-2.53 44.7-3.88 85.13-15 124.4-7.33 25.7-17.58 49.93-35.84 70.05-32.48 35.78-74.87 48.62-120.87 46.35-70.3-3.5-117.2-36.9-139.22-100.63-20.46-59.3-24.3-119.93-18.7-181.52 2.43-26.32 5.57-52.7 13.78-78.1 10.55-32.65 28.6-59.76 55.2-81.97 45.2-37.83 154.73-36.47 199.4 7.37 22.7 22.27 37.12 48.46 45.83 78.3 3.5 12.02 6.73 24.3 8.16 36.7 3.2 27.67 5.17 55.48 7.28 79.04zm-90.96 1.6c0-20.87.6-41.75-.16-62.6-.86-22.4-6.5-44-15.66-64.46-11.37-25.42-32.1-38.4-59.35-38.5-25.3-.05-45.5 10.9-57.22 34.78-9.93 20.25-16.24 41.57-17.35 63.94-1.58 31.96-2.3 63.94-2.5 95.92-.18 26.57 3.97 52.74 11.47 78.2 4.7 16 10.43 31.57 22.16 44.32 26.15 28.4 61.28 28.66 87.3.13 12.56-13.77 18.6-30.64 23.5-48.23 9.38-33.97 9.7-68.7 7.82-103.5zm2248.2 44.6c0 48.73 0 97.45-.03 146.2 0 8.35.1 16.7-.2 25.05-.38 9.52-4.7 15.66-15.1 15.72-9.75.04-19.62-.9-29.2.35-19.83 2.6-31.83-4.6-36.07-24.63-1.46-6.77-7-8.38-12.42-4.3-7.78 5.8-14.3 13.38-22.4 18.6-22.96 14.8-47.54 20.66-75.43 15.88-50.5-8.64-78.4-39.55-89.18-87.25-6.45-28.6-7.5-57.88-3.5-87.2 9.17-67.26 54.82-110.25 122.9-114.5 18.06-1.13 36.2-.18 54.3-.62 15.15-.35 17.9-2.66 18.18-15.95.35-16.73.8-33.47-.4-50.14-1.75-23.9-11.85-35.16-35.9-38.64-13.6-1.97-27.9-1.84-41.52 0-16.4 2.24-32.5 7.2-48.7 11.16-38.37 9.34-39.5 20.54-38.84-31.47.08-6.96.17-13.92.68-20.85.47-6.03 4.06-10.2 9.7-12.17 53.5-18.8 108.55-25.37 164.5-16.73 38.98 6.04 67.55 36.22 73.95 75.4 3.1 19.15 4.22 38.8 4.47 58.22.63 45.97.2 91.9.2 137.86zm-89.83-39c-19.32 0-37.08-.94-54.74.26-24.62 1.62-41.67 15.25-48.36 38.88-8.43 29.8-7.75 60.4-.68 90.4 3.22 13.63 11.18 25.24 25.3 31 25.3 10.28 67.93-6.9 78.46-31.86 1.06-2.46 1.72-5.34 1.68-8.06-.2-39.9 2.4-79.85-1.63-120.6zm-1375.78-5.4c3.2-33.28 2.28-69.66 11.76-105.12 4.35-16.26 9.3-32.18 17.25-46.9 24.93-46.17 62.2-74.42 115.94-77.2 15.27-.8 30.7-.83 45.92.53 54.97 4.9 93.02 33.76 115.56 83.74 15.13 33.6 20.55 69.5 22.9 105.66 2.82 43.18 3.04 86.45-5.63 129.2-2.75 13.63-5.5 27.3-9.36 40.65-34.9 121.7-167.47 128.18-237.35 83.63-26.92-17.14-43.57-42.4-54.9-71.77-17.4-45.04-20.6-92.2-22.07-142.44zm243.37-11.26c-.98-15-2.42-38.6-4.07-62.14-1.35-19.65-6.78-38.3-15.2-56.03-11.3-23.72-31.35-35.68-56.6-36.32-25.15-.65-46.03 9.47-58.16 33.3-6.3 12.43-11 25.3-13.84 39.13-10.74 52.38-9.7 105.18-4.43 157.88 1.8 17.76 8.18 35.1 12.57 52.6 3.1 12.36 9.25 23.24 17.5 32.86 26.02 30.4 64.27 30.4 90.05-.2 9.97-11.82 15.85-25.84 20.22-40.74 10.7-36.56 11.05-74.1 11.97-120.3zM9071.5 2402.47c-.95-2.44-2.83-5.03-2.82-7.56.22-71.08-12.7-57.48 57.2-76.08 36.63-9.75 74.6-9.55 112.03-4.62 43.07 5.66 72.85 36.03 79.78 79.37 1.98 12.3 2.7 24.96 2.74 37.42.23 104.4.17 208.84.1 313.26-.02 6.93-.4 13.9-1.37 20.75-.6 4.25-3.9 7.45-8.38 7.67-11.1.47-22.34-.4-33.32.88-19.55 2.3-32.2-3.73-36.08-24.38-1.25-6.68-6.68-8.52-12.42-4.62-4.53 3.1-8.5 7.1-12.5 10.94-48.73 46.37-148.85 29.32-171.47-51.3-11.5-41-13.64-82.5-2.23-123.7 14.2-51.4 60.8-86.66 118.07-90.1 19.43-1.18 38.96-.4 58.44-.67 7.55-.1 13.98-2.72 14.1-11.45.25-19.5.7-39.02-.46-58.44-1.1-19.04-12.93-30.02-31.08-34.32-16.5-3.9-33.25-3.74-49.7-.1-21.67 4.8-43.18 10.44-64.7 16-5.32 1.4-10.35 3.8-15.9 1.02zm160.62 143.33c-20.57 1.12-39.58-.8-58.7 1.95-22.9 3.3-38.63 16.44-44.65 38.18-8.28 29.8-7.44 60.55-.94 90.57 3.3 15.26 12.47 27.72 28.88 32.7 24.8 7.52 64.3-9.4 75.08-32.44 1.14-2.43 1.84-5.34 1.84-8 .04-39.98 2.14-79.97-1.48-122.97zm3471.75-143.84c-.73-1.78-2.7-4.34-2.7-6.87.14-71.16-12.8-58 56.78-76.3 36.7-9.67 74.66-9.54 112.07-4.55 42.87 5.7 73 36.32 79.62 79.56 2.5 16.46 3.15 33.3 3.2 50 .3 100.25.15 200.5.13 300.75 0 5.56-.2 11.13-.58 16.67-.6 8.32-5.57 12-13.6 12.02-9.76.06-19.6-.67-29.2.3-19.13 1.94-32.5-2.6-36.37-24.15-1.4-7.86-9-8.68-15.7-3.08-4.28 3.54-8.07 7.65-12.22 11.35-48.7 43.66-140.8 22.78-163.87-41.37-17.06-47.48-20.7-95.6-4.05-143.14 18.6-53.15 60.57-77.73 114.8-82.6 20.73-1.86 41.73-.72 62.6-1.2 6.2-.16 10.8-3.48 10.85-10 .14-19.48 1.06-39.06-.7-58.4-1.94-21.44-12.56-31.47-34.3-36.06-15.2-3.22-30.6-2.9-45.62.35-21.73 4.7-43.22 10.4-64.8 15.8-5.3 1.32-10.3 4.4-16.35.9zm160.73 145.73c-20.73 0-39.93-1.1-58.93.3-21.2 1.6-36.73 13.6-43.4 33.8-10.7 32.44-9.64 65.9-1.42 98.56 3.82 15.2 14.82 26.38 31.72 29.86 23.57 4.84 60.57-12.3 71.3-33.56 1.22-2.4 2.1-5.28 2.1-7.97.15-40.03 2.33-80.1-1.37-121zm-4977.28-.86c.78 44.42-3.98 86.93-16.47 128.85-35.85 120.44-175.3 125.76-242.52 76.06-19.63-14.5-33.46-33.1-43.48-55.08-11.06-24.3-18.8-49.86-21.97-76.02-7.63-62.6-7.73-125.28 7.2-187.03 3.55-14.77 8.76-29.6 15.93-42.96 24.68-45.97 61.67-74.92 115.54-77.9 13.88-.78 27.88-.88 41.73.04 62.4 4.2 103.55 37.34 125.05 94.95 16.82 45.04 20.06 92.34 19.02 139.06zm-242.48-6.4c-1.88 38.16 3.46 76.5 14.62 114.2 4.83 16.37 12 31.14 24.46 42.97 23.07 21.9 50.5 23 75.32 3.15 10-8 17.7-18 22.17-29.83 4.94-12.93 9.78-26.15 12.3-39.7 10.93-59.43 10.22-119.1.65-178.66-2.67-16.5-7.8-32.4-16.55-46.92-24.18-39.85-87.36-38.62-108.62-.22-8.17 14.75-14.47 29.96-17.18 46.66-4.7 28.9-8.63 57.83-7.16 88.4zm6321.88-135.77c-1.62-2.94-2.82-4.14-2.87-5.37-2.62-79.4-13.4-61.88 59.13-81.5 33.68-9.1 69.18-8.25 103.97-4.07 43.13 5.15 70.94 30.1 81.06 72.7 3.2 13.4 5.3 27.45 5.33 41.25.45 107.33.27 214.63.22 321.97 0 4.18-.3 8.35-.7 12.5-.6 6.4-4.44 10.02-10.65 10.53-6.94.6-13.9.63-20.84.7-36.6.4-36.6.37-52.7-31.7-12.3 1.04-17.55 12.2-25.76 18.82-49.63 39.98-136.23 17.65-158.9-40.94-18.93-48.84-21.7-98.3-5.07-147.16 17.57-51.63 58.6-76.1 111.17-81.55 20.7-2.18 41.78-.9 62.67-1.3 5.98-.13 11.23-2.4 11.78-9.05 1.92-22.2 2.7-44.47-1.04-66.62-2.3-13.73-10.43-21.73-23.56-26.4-15-5.36-30.3-5.64-45.38-3.4-17.84 2.56-35.38 7.3-53 11.48-11.83 2.76-23.57 6.14-34.83 9.1zm159.35 206.67c-.06 0-.14 0-.2 0 0-16.67.1-33.34-.03-49.98-.07-9.7-4.08-15.7-14.87-15.24-13.86.56-27.8.18-41.58 1.45-24.87 2.25-41.1 16.04-47.7 39.9-8.38 30.07-8.07 60.44-.1 90.6 3.72 14.2 12.06 25.04 25.95 30.4 32.93 12.7 77.38-16.4 78.45-51.3.47-15.27.07-30.55.07-45.83zM8905.7 2190.3c5.55 12.48 2.37 26.37 2.7 39.9.52 22.25-.1 44.52.23 66.8.3 21.34 1.58 22.45 24.4 22.9 16.5.3 33 .06 48.5.06 6.47 15.3 1.68 27.58.24 39.64-2.9 23.98-5.24 25.37-28.13 26.25-13.78.54-27.86-2.4-41.06 3-5.64 7.6-3.97 16.17-4 24.34-.08 80.7 1.14 161.44-.46 242.14-1.06 53.4 23.42 56.1 58.28 49.13 9.44-1.9 18.93-3.58 27.97-5.26 2.1 3.5 4.72 5.87 4.73 8.2.43 72.45 12.34 60.43-61.7 73.1-15.3 2.6-30.43-.02-45.47-3.66-39.62-9.55-62.73-34.07-67.83-74.53-1.9-15.1-1.73-30.5-1.75-45.83-.17-76.52-.07-153.07-.12-229.6 0-9.74-.27-19.48-.5-29.2-.2-6.86-5.12-8.95-10.65-10.72-12.84-4.05-30.44 5.7-38.7-7.94-7.92-13.02-2.5-29.95-2.77-45.13-.1-7.85 3.84-12.4 12.26-13.7 13.15-2.06 30.5 6.55 38.52-7.28 5.7-9.8 3.53-24.3 4.54-36.7 1.6-19.33-1.9-41.3 9.05-56.8 11.03-15.5 34-17.07 51.2-25.86 6.18-3.17 12.37-6.62 20.54-3.26zm-401.2 571.94c-2.48-22.87-1.2-45.96-.65-72.4 18.36 4.42 33.07 7.4 47.42 11.63 14.94 4.43 29.93 6.6 45.38 5.32 22.35-1.93 41.73-10.6 48.9-32.96 7.9-24.58 8.88-50.04-12.22-69.9-9.02-8.5-19.93-15.07-30.4-21.9-18.7-12.15-37.56-23.9-54.1-39.1-45.16-41.5-53.55-92.63-37.88-149 11.98-43.12 44.12-67.25 85.55-77.6 34.1-8.54 69.14-7.15 103.07 4.05 21.64 7.1 21.96 7.7 22.6 28.75.2 6.96.1 13.95.02 20.9-.37 27.56-.34 27.37-26.66 21.4-12.22-2.76-24.6-5.23-37.02-6.5-9.6-1-19.58-1.13-29.08.4-17.3 2.7-32.7 10.55-38.22 28.27-6.36 20.46-8 41.88 8.64 58.87 9.63 9.86 21.27 17.9 32.7 25.74 14.9 10.28 30.74 19.14 45.63 29.42 34.3 23.6 53.74 55.9 54.8 98.07.4 16.67.83 33.53-.9 50.07-5.16 49.24-36.9 85.5-84.18 97.86-48.98 12.8-90.45 9.58-143.44-11.42zm4138.35-357.74c-18.5-2.54-30.72-4.5-43-5.87-14.4-1.55-27.48 2.72-39.97 9.65-13.3 7.44-19.4 17.66-19.26 33.72.66 82.22.3 164.44.3 246.63 0 22.33.22 44.6-.2 66.9-.28 14.3-3.2 17.24-16.97 17.6-16.73.4-33.46.4-50.18 0-15.94-.36-18.3-2.8-18.6-20.3-.44-22.3-.16-44.56-.16-66.86 0-107.3-.03-214.58.08-321.88 0-13.63.78-27.23 1.18-39.5 12.92-7 24.28-4.27 35.2-4.4 27.6-.25 27.6.03 38.05 26 1.04 2.54 2.6 4.87 4.07 7.5 8.86 1.6 10.76-6.45 14.2-11.3 21.8-30.64 52.1-34.1 85.67-27.83 6.47 1.2 9.43 6 9.5 11.8.3 24.93.12 49.86.12 78.1zm99.5-1406.48c-15.32 0-30.63.13-45.98-.07-5.76-.1-9.4-7.14-5.98-11.76 7.44-10.08 15.23-19.9 23.03-29.7 26.07-32.64 52.64-64.97 78.08-98.1 9.53-12.36 20.64-16.5 35.7-16.22 39 .68 78.03.27 117.03.27 5.46 0 12.03-.63 13.2 6.17.53 3.04-2.7 7.6-5.45 10.16-21.26 20.12-42.84 39.9-64.27 59.82-22.42 20.84-45.43 41.2-67.02 62.88-12.9 12.95-27 18.45-44.9 16.9-11.08-.92-22.3-.16-33.45-.16 0-.1 0-.16 0-.22zm1469.58 1143.88c.3 14.92.93 29.85.84 44.75-.16 31.92-2.57 34.4-31.05 45.77-26.5 10.63-51.93 6.68-76.93-3.82-10.23-4.24-19.56-10.57-29.16-16.2-32.24-19.04-65.14-22.9-98.94-4.3-6.15 3.38-11.95 7.15-21.63 3.8 0-17.05.68-35.06-.23-53-.73-14.36 4.7-22.8 17.65-29.3 36-18.02 72.1-18.27 108.75-3.12 7.68 3.17 15.2 6.96 22.23 11.4 31.84 20.05 64.18 25.96 98.04 4.74 2-1.24 5.33-.45 10.4-.73z" class="fil0"/><path d="M3717.86 3192.94c-10.05 1.7-20.67 2.26-31.73 1.52-13.92-.93-27.84-1.86-41.72-3.3-16.4-1.7-32.8-3.7-49.17-5.93-11.97-1.62-23.2-4.72-33.56-9.12-11.4 1-23.43.5-35.87-1.55-22.33-3.73-44.6-7.77-66.7-12.62-395.87-86.88-730.6-283.12-997.84-588.07-206.8-236-342.6-509.98-408.93-816.44-21.68-100.18-34.73-202-37.98-304.47-3.76-118.43-.62-236.85-1.98-355.3-1.36-118.3 93.07-218.34 210.1-229.28 82.85-7.73 163.02 30.7 210.62 95.27 9.4-4.14 19.23-7.68 29.43-10.58 105.46-29.92 213.1 24.57 257.28 117.35 30.45-9.2 62.16-11.32 92.86-7.1-20.95-51.76-32.6-107.14-31.87-163.24 1-75.4 11.3-146.27 41.93-215.6 14.83-33.5 34.17-64.5 58.6-91.86 56-62.68 129.5-95.22 212.6-101.77 38.8-3.06 78.04.24 115.75 9.92 76.13 19.52 137.5 64.42 180.82 129.8 27.47 41.46 45.94 87.3 56.6 135.8 14.3 65.08 20.26 130.07 9.54 196.25-13.92 86-48.13 163.88-104.77 230.34-4.2 4.94-8.53 9.74-12.97 14.42 17.58 4.95 35.06 10.47 52.43 16.55 10.64 3.75 21.1 7.88 31.36 12.47 15.3-13.92 31.83-26.46 49.27-38.17 33.23-22.34 69.4-38.94 107.43-51.25 12.7-4.12 25.47-7.95 38.27-11.48-12.75-13.77-24.53-28.6-35.37-44.32-55.8-80.95-84.8-172.14-83.87-270.62.54-57.77 9.42-114.56 28-169.3 11.83-34.86 27.9-67.8 49.28-97.8 44.87-62.95 106.5-105.47 182.14-122.5 60.73-13.66 122.88-12.47 182.64 5.25 75.65 22.42 134.65 70.98 175.2 138.16 28.67 47.52 45.6 99.27 55.15 153.7 13.8 78.6 12.14 156.7-12.04 233.2-20.57 65.05-52.5 124.12-99.25 174.16 19.5 5.4 38.8 11.53 57.92 18.43 51.1 18.48 97.47 46.08 137.58 82.6 14.4-6.57 29.2-12.3 44.3-17.25 13.72-4.5 27.52-8.65 41.36-12.47-4.04-4.4-8-8.93-11.83-13.6-67.72-81.9-104.46-178-107.25-284.33-1.84-69.78 8.8-138.3 34-203.5 11.6-30.03 26.6-58.42 45.7-84.37 55.4-75.38 133.58-118.67 226.8-126.1 8.7-.68 17.38-.97 26.1-1.42l5.02-.26 5.04.2c27.78 1.17 53.98 2.7 81.15 9.28 73.52 17.85 134 58.93 178.1 120.34 29.97 41.73 49.77 88.38 61.86 138.16 19.72 81.16 24.16 163.1 3.65 244.63-4.82 19.12-10.62 37.78-17.47 55.9 15.36-1.56 31.08-1.48 46.92.4 13.4 1.57 26.38 4.32 38.9 8.14 37.72-79.5 123.93-131.25 214.93-124.5 25.08 1.88 48.98 7.98 71 17.6 42.58-58.76 111.93-96.52 189.7-95.88 123.7 1 228.52 97.2 231.63 222.34.13 5.5.37 10.93.36 16.4-.17 106.62 1.18 213.23-.94 319.82-4.18 211.58-46.43 417.2-123.64 614.13-100.75 256.92-253.14 481.53-455.14 669.63-242.82 226.1-528.12 376.55-852.04 448.56-22.86 5.07-45.84 9.6-68.8 14.15-17.14 3.4-32.8 5.2-49.13 3.82-11.55 4.85-24.27 8.12-37.97 9.6-28.4 3.13-56.84 5.96-85.3 8.64-11.78 1.1-23.14.68-33.9-1.15-14.08 3.85-29.14 5.15-46.2 6.34-53.63 3.76-107.36 2.7-160.98-.8-11.77-.78-22.85-2.8-33.14-5.97z" class="fil1"/><path d="M3781.38 535.4c43.23-9.74 86.36-9.12 128.7 3.43 49.9 14.8 87.2 46.5 113.95 90.84 21.8 36.1 34.12 75.62 41.36 116.9 10.76 61.42 10.3 122.37-8.7 182.38-15.72 49.78-39.55 95.03-75.45 133.4-19.95 21.33-42.45 39.32-69.24 51.4-52 23.46-103.5 22.16-154.16-3.78-36.24-18.58-64.48-46.4-87.37-79.6-43.3-62.8-65.7-132.27-64.96-208.83.4-46.5 7.4-91.86 22.35-135.92 8.47-24.97 19.75-48.55 35.08-70.05 29.5-41.43 68.44-68.92 118.44-80.18zm-430.4 410.1c-10.8 66.67-36.65 126.44-80.58 178-18.35 21.53-39.68 39.68-64.7 53.04-57.15 30.5-114.33 29.92-170.96-1.32-31.43-17.34-56.76-41.83-77.62-70.74-46.4-64.32-69.77-136.17-69.26-203.02 1.27-68.35 10.13-122.4 32.8-173.7 10.33-23.32 23.55-44.8 40.54-63.84 37.6-42.1 85.8-62 141.15-66.35 27.24-2.15 54.28.1 80.75 6.9 50.43 12.92 89.5 41.94 118.16 85.2 20.24 30.54 33.47 64.13 41.3 99.67 11.3 51.5 16.95 103.42 8.4 156.15zm-678.98 662c2.7-128.3 81.8-237.8 202.46-282 62.38-22.85 126.94-35.47 193.28-40.26 99.02-7.14 194.86 7.04 288.25 39.73 17.1 6 33.62 13.36 49.14 22.8 6 3.64 6.68 6.96 3.23 13.52-2.1 3.97-4.6 7.76-6.8 11.7-30.18 54.13-45.02 112.2-45.02 174.1-.04 235.4-.02 470.8-.04 706.18 0 9.82 0 19.65 0 34.18-11.5-7.1-18.32-11.3-25.12-15.52-76.58-47.65-159.44-76.58-249.52-84.44-18.07-1.57-36.05-3.77-54.18-2.86-11.55.6-21.35-1.73-28.73-11.4-2.72-3.58-6.34-6.44-9.54-9.65-99.22-99.2-198.44-198.44-297.66-297.67-3.2-3.2-6.15-6.72-9.66-9.55-8.44-6.84-11.05-15.32-10.97-26.2.56-74.24-.7-148.5.88-222.7zm-38.23-430.03c.03 201.75.02 403.5.02 605.27 0 7.17 0 14.34 0 26.35-27.2-16.84-51.04-27.1-77.33-30.96-26.62-3.92-52.26-.1-77.42 8.5-24.88 8.47-45.9 23.48-64.4 41.24-6.05-5.44-4.53-10.17-4.53-14.36-.1-216.24-.23-432.47.02-648.7.06-52.72 32.3-94.8 81.62-108.8 67.64-19.17 136.94 29.6 141.57 99.72.48 7.2.43 14.47.43 21.7zM2371 1526c-.02 134.02-.04 268.06 0 402.1.02 18.1.34 36.1 5.15 53.87 8 29.58 22.56 55.08 44.26 76.65 28.9 28.73 57.67 57.62 86.5 86.44 76.83 76.84 153.66 153.7 230.53 230.54 5.1 5.1 10.1 10.45 15.66 15.02 9.37 7.7 19.65 7.75 27 .84 7.43-7.04 7.54-17.24-.44-26.64-5.28-6.2-11.28-11.77-17.04-17.52-100.62-100.44-201.27-200.87-301.9-301.33-7.04-7.03-14.14-14.06-20.78-21.46-43.96-49.03-40.42-127.94 5.08-172.76 46.9-46.18 119.6-50.1 170.5-8.07 7.64 6.32 14.58 13.55 21.62 20.6 112.1 112.02 224.08 224.2 336.3 336.1 26.77 26.66 14.77 21.97 54.04 22.03 242.48.32 451.55 160.75 514.78 394.9 12.12 44.92 17.53 90.66 17.8 136.92.58 97.8.18 195.6.18 293.43 0 2.7.06 5.44-.05 8.15-.54 13.37-2.67 15.47-16.77 13.13-20.52-3.44-41.02-7.13-61.35-11.6-373.86-82.04-688-266.18-940.26-554.05-194.93-222.43-322.3-479.56-384.82-768.52-20.32-93.9-32.56-189-35.62-285.23-3.73-117.7-.58-235.42-1.93-353.13-.7-61.87 50.75-115.63 113-121.44 60.77-5.68 120.25 35.37 134.46 94.94 3.38 14.16 4.2 28.55 4.2 43.13-.17 137.65-.1 275.3-.1 412.96zm3186.97-420c-.18 105.94 1.2 211.93-.9 317.85-3.96 199.22-43.58 391.72-116.3 577.16-95.05 242.46-237.84 452.95-428.4 630.4-229.07 213.27-496.57 354.42-802.33 422.4-22.08 4.9-44.28 9.23-66.48 13.66-7.87 1.56-15.83 3.3-23.42 1.43-4.63-6.3-3.18-12.84-3.18-19.05-.1-99.6-.8-199.22.07-298.83 2.26-257.56 179.54-453.32 393.58-510.42 43.95-11.72 88.63-18.12 134.15-18.1 8.16 0 16.33-.38 24.45.07 8.88.47 15.73-2.7 21.45-9.32 3.53-4.1 7.6-7.74 11.46-11.58 73-73 146-146 219.04-219.02 43.53-43.52 86.76-87.4 130.8-130.4 36.9-36.1 81.22-47.35 130.12-30.9 48.96 16.43 77.32 52.45 85.04 103.3 5.45 35.83-5.02 68.16-27.7 96.33-5.64 7.02-12.37 13.22-18.76 19.6-103.07 103.14-206.2 206.23-309.24 309.36-5.75 5.75-11.75 11.42-16.5 17.93-5.8 7.93-3.94 18.5 3.08 24.52 5.97 5.1 15.68 5.7 22.67.6 4.36-3.15 8.2-7.1 12.03-10.94 107.6-107.56 215.16-215.17 322.77-322.7 34.52-34.48 50.63-76.2 50.63-124.72-.1-269.9-.06-539.78-.03-809.65 0-10.87-.12-21.76.5-32.6 3.77-66.25 58.5-118.5 125.62-117.93 78.88.66 124.1 63.36 125.47 117.95.1 4.54.33 9.06.33 13.6zm-2087.93 236.5c16.65-22.24 38.35-39.77 61.68-55.45 24.96-16.78 52.16-29 80.68-38.23 93.18-30.17 188.3-42.92 286.3-34.03 62.6 5.66 123.38 18.4 182.4 39.72 39.65 14.32 75.07 35.72 105.78 64.7 7.8 7.38 15.87 14.63 22 26.6-4.8 3.93-9.86 7.72-14.5 11.97-77.2 70.65-114.44 159.06-114.92 263-.6 130.33-.15 260.7-.15 391.05 0 108.62-.3 217.27.36 325.9.08 16.47-4.5 28.73-15.13 41.42-74.08 88.5-117 190.33-128.5 305.38-2.34 23.5-3.5 46.92-3.48 70.46.1 102.3.13 204.6 0 306.9-.04 33.14 3.42 28.76-28.05 31-48.88 3.4-97.68 2.36-146.48-.84-12.73-.84-14.12-2.28-14.55-14.25-.24-7.22-.1-14.47-.1-21.72 0-102.3-.36-204.6.13-306.9.4-83.56-15.24-163.6-49.56-239.9-20.92-46.5-46.92-89.95-80.42-128.4-12.25-14.03-16.3-28.37-16.25-46.6.56-173.8.34-347.62.34-521.43 0-66.07.13-132.16-.02-198.25-.2-82.76-26.5-156.34-79.14-220.15-11.46-13.9-25.1-26-37.8-38.88-3.75-3.8-8.93-6.32-10.6-13.1zm1798.03-172.26c-.03 211.84 0 423.7-.13 635.56-.02 6.97 1.66 14.22-3 24.33-66.76-61.07-138.28-70-214.42-26.7-7.15-2.93-5.25-8.08-5.8-12.16-.35-2.67-.1-5.42-.1-8.13-.5-201.9-1.03-403.77-1.4-605.64-.02-9.92.83-19.88 1.9-29.75 5.7-51.38 55.2-100.05 119.3-95.3 55.8 4.16 101.1 50.14 103.6 106.92.14 3.62.05 7.24.05 10.87zm-262.37 544.3c0 37.1-.32 74.24.15 111.36.17 12.48-3 22.14-12.2 31.32-105.18 104.83-210.14 209.85-314.6 315.4-10.26 10.36-20.94 11.92-33.97 12.07-97.82 1.1-189.7 24.9-275.06 73.03-13.4 7.54-26.34 15.9-39.68 23.5-3.73 2.14-7.4.24-7.7-4.08-.68-9-.77-18.06-.77-27.1-.04-227.27.08-454.54-.13-681.8-.03-39.9-2.66-79.55-13.8-118.26-8.6-29.78-20.6-57.9-36.25-84.6-7.17-12.2-6.6-13.32 6.27-20.6 17.4-9.83 35.72-17.67 54.65-23.86 90.42-29.58 182.9-42.84 278.15-35.7 64.5 4.83 127.42 16.64 188.07 38.92 110.07 40.42 176.8 118.88 201.5 233.17 4.18 19.46 5.4 39.42 5.35 59.4-.08 32.6 0 65.2 0 97.8zM4559.8 600.3c21.08.9 40.8 1.6 60.4 6.35 48.74 11.83 87.3 38.2 116.38 78.74 21.94 30.52 35.96 64.62 44.8 100.97 15.57 64.1 20.12 128.53 3.84 193.23-14.58 57.95-40.37 110.15-81.3 154.27-17.97 19.4-38.3 35.9-62 47.75-52.84 26.4-106.05 26.76-159.08.6-28-13.77-51.67-33.4-71.45-57.34-52.5-63.47-80.57-136.48-82.75-218.93-1.45-55.65 6.7-109.94 26.85-162.1 8.2-21.2 18.6-41.2 32.07-59.53 37.02-50.33 86.8-77.82 149.06-82.78 8.1-.65 16.25-.88 23.17-1.24zm-312.2 798.66c26.3 49.1 36.03 101.97 36.26 157.02.16 37.1.03 74.2.03 111.32 0 206.35 0 412.7 0 619.07 0 4.52-.43 9.1.1 13.56 1.3 11.84-3.17 20.25-12.24 28.15-62.4 54.28-109.76 119.8-143.72 195.14-2.1 4.63-3.07 10.1-10.8 12.76 0-7.64 0-14.55 0-21.43 0-298.68-.14-597.35.08-896 .08-88.46 31.17-164.37 94.8-226.32 20.47-19.93 21.5-19.35 35.47 6.73zm-687.32 401.36c0 236.28 0 472.57 0 708.86 0 9.72 0 19.42 0 29.28-6.54-.6-7.1-5.5-8.8-9.43-32.94-75.85-80.03-141.66-141.54-196.84-11.02-9.93-15.78-19.8-15.75-34.8.43-252.6.2-505.18.4-757.77.03-51.67 13.4-100.18 38.1-145.5 2.6-4.75 5.73-9.2 8.9-13.6.98-1.36 2.9-2.04 4.83-3.34 15.73 9.2 27.78 22.8 39.5 36.5 49.02 57.27 73.53 124 74.22 199.2.58 62.46.12 124.94.12 187.4zm1227.78-558.78c18.4-48.73 67.43-79.15 117.9-73.2 51.55 6.1 91.53 45.5 98.6 97.35.86 6.24 1.18 12.6 1.2 18.92.08 50.7.05 101.4 0 152.13 0 2.57-.5 5.14-.98 10-8.34-2.82-9.63-8.65-12.38-13.04-43.85-70.33-105.6-118.16-183.2-146.12-32.17-11.6-33.26-14-21.14-46.06zm-2077.52-46.12c63.16-55.33 163.86-22.83 182.68 58.92 1.2 5.24 1.67 10.7 1.92 16.1.22 4.74-1.4 8.82-6.53 10.53-5.97 2-11.96 4.06-17.92 6.13-79.88 27.56-142.54 76.78-187 148.83-2.72 4.4-4.3 9.7-9.5 12.08-3.52-1.1-2.7-4.15-2.7-6.5-.07-54.23-.42-108.47.1-162.7.34-33.4 13.85-61.36 38.97-83.37zm1368.8 1233.24c0 8.88.02 17.77 0 26.65-.13 198.17-.3 396.3-.44 594.47 0 5.42.17 10.87-.1 16.3-.52 10.22-2.1 12.2-13.07 13.4-27.86 3.06-55.76 5.84-83.67 8.46-9 .85-10.97-1.2-11.38-10.56-.26-5.4-.1-10.86-.1-16.3-.02-107.65-.5-215.33.1-323 .64-108.87 32.14-208.35 94-298.07 3-4.37 6.47-8.4 9.72-12.6 1.66.43 3.3.84 4.94 1.26zm-479.06 1.67c6.1-.05 7.88 4.55 10.3 8 46.25 66.38 75.72 139.43 88.63 219.4 5.4 33.25 6.45 66.64 6.6 100.08.46 102.27.17 204.5.17 306.78 0 3.6.1 7.23-.07 10.84-.5 11.12-2.24 12.93-12.64 12.23-12.64-.84-25.28-1.68-37.87-2.97-15.3-1.6-30.58-3.45-45.8-5.53-8.7-1.17-11.17-3.82-11.7-12.1-.4-6.3-.26-12.64-.26-18.98-.03-198.17-.06-396.35.07-594.5 0-7.77-2.35-16.1 2.57-23.22z" class="fil2"/><path d="M2371 1526c-.02 134.02-.04 268.06 0 402.1.02 18.1.34 36.1 5.16 53.87 8 29.58 22.55 55.08 44.25 76.65 28.9 28.74 57.66 57.62 86.48 86.44 76.85 76.85 153.68 153.7 230.54 230.54 5.13 5.1 10.1 10.45 15.68 15.02 9.38 7.7 19.65 7.76 27 .84 7.45-7.04 7.55-17.25-.44-26.65-5.27-6.17-11.27-11.74-17.03-17.5-100.63-100.43-201.27-200.86-301.9-301.32-7.04-7.04-14.13-14.05-20.78-21.46-43.96-49.03-40.42-127.95 5.08-172.77 46.9-46.18 119.6-50.1 170.5-8.07 7.64 6.32 14.58 13.55 21.62 20.6 112.1 112.02 224.07 224.2 336.3 336.08 26.77 26.7 14.77 22 54.04 22.05 242.47.33 451.54 160.76 514.76 394.9 12.13 44.93 17.55 90.67 17.82 136.93.57 97.8.17 195.6.17 293.43 0 2.7.06 5.44-.05 8.15-.53 13.38-2.66 15.48-16.76 13.13-20.52-3.43-41.02-7.12-61.34-11.58-373.87-82.05-688.02-266.18-940.27-554.06-194.93-222.44-322.3-479.57-384.82-768.53-20.3-93.9-32.55-189-35.6-285.23-3.75-117.7-.6-235.42-1.94-353.12-.7-61.87 50.76-115.63 113-121.44 60.77-5.67 120.25 35.37 134.46 94.94 3.38 14.16 4.2 28.55 4.18 43.12-.16 137.66-.1 275.3-.1 412.97zm1749.14 1542.88c-4.62-6.28-3.2-12.83-3.2-19.04-.08-99.6-.78-199.22.1-298.84 2.25-257.57 179.53-453.32 393.57-510.42 43.95-11.72 88.63-18.12 134.15-18.1 8.15 0 16.33-.38 24.45.07 8.88.47 15.73-2.7 21.45-9.32 3.53-4.1 7.6-7.74 11.46-11.58 73.03-73 146-146.02 219.03-219.02 43.54-43.53 86.77-87.4 130.8-130.42 36.92-36.05 81.23-47.32 130.14-30.9 48.94 16.47 77.3 52.5 85.03 103.34 5.44 35.83-5.02 68.17-27.7 96.33-5.64 7.02-12.36 13.22-18.76 19.6-103.07 103.14-206.2 206.23-309.24 309.36-5.76 5.75-11.74 11.42-16.5 17.93-5.8 7.93-3.94 18.5 3.08 24.52 5.97 5.1 15.7 5.7 22.67.63 4.36-3.15 8.2-7.1 12.03-10.94 107.6-107.55 215.16-215.17 322.77-322.7 34.52-34.48 50.63-76.2 50.62-124.73-.1-269.88-.05-539.76-.02-809.64 0-10.87-.12-21.76.5-32.6 3.77-66.25 58.5-118.5 125.62-117.93 78.88.65 124.12 63.36 125.47 117.95.1 4.54.33 9.06.33 13.58-.18 105.96 1.18 211.95-.9 317.87-3.96 199.22-43.58 391.73-116.3 577.16-95.05 242.45-237.84 452.94-428.4 630.38-229.07 213.3-496.57 354.44-802.33 422.4-22.08 4.93-44.28 9.26-66.47 13.68-7.87 1.56-15.84 3.3-23.43 1.43z" class="fil3"/><path d="M3470.04 1342.5c16.65-22.25 38.35-39.77 61.68-55.45 24.97-16.78 52.15-29 80.68-38.23 93.18-30.17 188.32-42.92 286.3-34.03 62.6 5.66 123.38 18.4 182.4 39.72 39.65 14.32 75.08 35.72 105.78 64.7 7.8 7.38 15.87 14.63 22 26.6-4.8 3.93-9.86 7.72-14.5 11.97-77.2 70.64-114.45 159.06-114.92 263-.6 130.33-.15 260.7-.15 391.05 0 108.63-.3 217.27.35 325.9.1 16.47-4.48 28.73-15.12 41.42-74.08 88.5-117 190.33-128.5 305.38-2.34 23.48-3.5 46.92-3.48 70.47.1 102.3.12 204.6 0 306.87-.04 33.14 3.42 28.77-28.06 31-48.88 3.4-97.67 2.37-146.47-.84-12.73-.84-14.12-2.28-14.54-14.25-.26-7.22-.1-14.47-.1-21.72 0-102.3-.38-204.6.1-306.9.4-83.56-15.23-163.6-49.55-239.9-20.92-46.5-46.93-89.94-80.42-128.38-12.25-14.05-16.3-28.4-16.24-46.6.54-173.82.32-347.63.32-521.45 0-66.07.12-132.16-.03-198.24-.2-82.76-26.5-156.33-79.15-220.14-11.47-13.9-25.1-26-37.8-38.9-3.75-3.78-8.92-6.3-10.6-13.08zm-113.5 944.98c-11.53-7.1-18.35-11.3-25.15-15.52-76.6-47.65-159.45-76.57-249.53-84.43-18.07-1.58-36.05-3.78-54.18-2.87-11.57.6-21.36-1.73-28.74-11.4-2.72-3.57-6.34-6.44-9.54-9.65-99.23-99.2-198.45-198.43-297.68-297.66-3.2-3.2-6.15-6.7-9.64-9.54-8.44-6.84-11.05-15.32-10.96-26.2.53-74.24-.7-148.5.86-222.7 2.7-128.3 81.8-237.8 202.46-282 62.38-22.85 126.94-35.47 193.28-40.26 99.03-7.14 194.86 7.04 288.25 39.73 17.1 6 33.62 13.36 49.14 22.8 6 3.64 6.68 6.96 3.23 13.5-2.1 4-4.6 7.8-6.82 11.75-30.16 54.12-45 112.22-45 174.1-.03 235.4-.02 470.78-.03 706.17 0 9.8 0 19.64 0 34.17zm1649.16-572.95c0 37.1-.32 74.25.16 111.37.16 12.5-3 22.14-12.2 31.32-105.2 104.82-210.15 209.85-314.6 315.4-10.27 10.36-20.95 11.92-33.98 12.07-97.82 1.1-189.7 24.9-275.05 73.03-13.4 7.54-26.34 15.9-39.7 23.5-3.72 2.14-7.38.25-7.7-4.08-.67-9-.76-18.06-.76-27.1-.04-227.27.08-454.54-.13-681.8-.04-39.9-2.65-79.55-13.8-118.26-8.6-29.78-20.6-57.9-36.25-84.6-7.17-12.2-6.6-13.32 6.27-20.6 17.4-9.82 35.73-17.67 54.65-23.86 90.42-29.58 182.9-42.84 278.15-35.7 64.5 4.83 127.42 16.64 188.08 38.92 110.06 40.4 176.8 118.88 201.48 233.17 4.2 19.46 5.4 39.42 5.36 59.4-.08 32.6 0 65.2 0 97.8zM2887.86 901.46c1.26-68.34 10.13-122.4 32.8-173.7 10.33-23.32 23.55-44.8 40.55-63.84 37.6-42.1 85.8-62 141.15-66.35 27.25-2.15 54.3.1 80.76 6.9 50.44 12.93 89.5 41.95 118.17 85.2 20.24 30.54 33.47 64.13 41.28 99.68 11.32 51.5 16.97 103.42 8.43 156.14-10.8 66.66-36.64 126.43-80.57 178-18.33 21.52-39.7 39.67-64.7 53.02-57.14 30.52-114.32 29.93-170.95-1.32-31.43-17.32-56.76-41.8-77.62-70.72-46.4-64.3-69.77-136.18-69.26-203.02zm717.66-79.93c.4-46.5 7.4-91.85 22.34-135.9 8.47-24.97 19.75-48.56 35.08-70.07 29.52-41.4 68.44-68.9 118.44-80.17 43.23-9.74 86.36-9.13 128.7 3.42 49.9 14.8 87.2 46.5 113.94 90.84 21.8 36.1 34.13 75.62 41.37 116.9 10.76 61.42 10.3 122.37-8.7 182.38-15.72 49.78-39.56 95.03-75.45 133.4-19.95 21.34-42.44 39.3-69.24 51.4-51.97 23.47-103.5 22.17-154.16-3.8-36.25-18.56-64.5-46.4-87.37-79.58-43.3-62.8-65.7-132.27-64.96-208.84zM4559.8 600.3c21.08.88 40.8 1.6 60.4 6.35 48.74 11.83 87.3 38.2 116.38 78.74 21.94 30.52 35.96 64.62 44.8 100.97 15.57 64.1 20.12 128.53 3.84 193.23-14.58 57.95-40.37 110.15-81.3 154.27-17.97 19.4-38.3 35.9-62 47.75-52.84 26.4-106.05 26.76-159.08.62-28-13.8-51.67-33.43-71.45-57.35-52.5-63.5-80.58-136.5-82.75-218.96-1.45-55.65 6.7-109.93 26.85-162.12 8.22-21.2 18.6-41.2 32.07-59.5 37.03-50.34 86.8-77.83 149.06-82.8 8.1-.63 16.25-.86 23.17-1.23zm-1113.36 776.9c15.73 9.22 27.78 22.82 39.5 36.5 49.02 57.28 73.53 124 74.22 199.2.57 62.48.12 124.95.12 187.42 0 236.28 0 472.57 0 708.86 0 9.7 0 19.42 0 29.3-6.54-.62-7.1-5.53-8.8-9.44-32.94-75.85-80.03-141.66-141.54-196.85-11.03-9.93-15.78-19.8-15.75-34.8.42-252.6.2-505.18.4-757.77.03-51.67 13.4-100.18 38.1-145.52 2.6-4.73 5.73-9.2 8.9-13.57.98-1.35 2.9-2.04 4.83-3.34zm670.8 1158.78c0-7.64 0-14.54 0-21.43 0-298.67-.13-597.34.1-896 .07-88.46 31.17-164.37 94.8-226.32 20.45-19.93 21.48-19.36 35.46 6.73 26.3 49.1 36.02 101.97 36.26 157.02.16 37.1.03 74.2.03 111.32 0 206.35 0 412.7 0 619.06 0 4.53-.43 9.1.1 13.57 1.3 11.84-3.17 20.25-12.24 28.15-62.42 54.27-109.76 119.82-143.72 195.15-2.1 4.63-3.07 10.1-10.8 12.75z" class="fil4"/><path d="M5264.95 1830.13c-66.77-61.08-138.3-70-214.43-26.7-7.16-2.93-5.25-8.07-5.8-12.16-.35-2.66-.1-5.42-.1-8.14-.5-201.88-1.03-403.75-1.4-605.63-.02-9.92.83-19.9 1.92-29.75 5.68-51.4 55.17-100.05 119.27-95.3 55.83 4.16 101.14 50.14 103.63 106.92.15 3.62.05 7.24.05 10.87-.02 211.85 0 423.7-.13 635.56-.02 6.97 1.66 14.2-3 24.33zM2633.8 1809.1c-27.2-16.84-51.03-27.08-77.32-30.95-26.62-3.92-52.25-.08-77.42 8.5-24.88 8.46-45.9 23.48-64.4 41.25-6.05-5.44-4.53-10.17-4.53-14.36-.1-216.24-.23-432.47.02-648.7.07-52.72 32.3-94.8 81.62-108.8 67.64-19.17 136.94 29.58 141.57 99.72.48 7.2.43 14.47.43 21.7.03 201.76.02 403.52.02 605.27 0 7.18 0 14.35 0 26.36zm966.5 621.24c6.1-.05 7.86 4.54 10.26 8 46.27 66.37 75.73 139.42 88.65 219.4 5.4 33.24 6.44 66.63 6.6 100.07.46 102.26.17 204.5.17 306.78 0 3.6.08 7.23-.07 10.84-.5 11.13-2.24 12.93-12.64 12.24-12.63-.85-25.28-1.7-37.88-2.98-15.3-1.6-30.55-3.45-45.78-5.53-8.7-1.17-11.16-3.82-11.7-12.1-.42-6.3-.26-12.65-.26-18.97 0-198.18-.05-396.36.08-594.53 0-7.75-2.36-16.08 2.57-23.2zm479.04-1.68c0 8.88.02 17.77 0 26.65-.14 198.17-.3 396.3-.44 594.47 0 5.42.17 10.86-.1 16.3-.52 10.22-2.1 12.2-13.07 13.4-27.86 3.06-55.75 5.83-83.67 8.46-9 .85-10.97-1.2-11.4-10.55-.23-5.43-.1-10.87-.1-16.3 0-107.66-.5-215.34.13-323 .6-108.88 32.1-208.36 93.96-298.08 3-4.36 6.48-8.4 9.74-12.58 1.66.4 3.3.82 4.94 1.24zm925.44-981.9c-8.34-2.82-9.63-8.66-12.4-13.04-43.83-70.34-105.57-118.17-183.18-146.13-32.16-11.6-33.25-14-21.14-46.08 18.4-48.72 67.43-79.14 117.9-73.18 51.55 6.1 91.53 45.48 98.6 97.35.85 6.23 1.17 12.6 1.2 18.92.08 50.7.05 101.4 0 152.12 0 2.58-.5 5.15-.98 10.02zm-2330.6 1.24c-3.54-1.1-2.7-4.16-2.7-6.5-.08-54.23-.44-108.47.1-162.7.32-33.4 13.83-61.37 38.96-83.38 63.16-55.33 163.87-22.84 182.67 58.92 1.23 5.24 1.7 10.72 1.95 16.1.22 4.75-1.4 8.83-6.53 10.53-5.98 2-11.96 4.06-17.93 6.13-79.9 27.56-142.55 76.78-187 148.84-2.73 4.38-4.3 9.7-9.5 12.07z" class="fil3"/></g></g></svg>