<svg id="svg" version="1.1" xmlns="http://www.w3.org/2000/svg" xmlns:xlink="http://www.w3.org/1999/xlink" width="50" height="50" viewBox="50, 75, 300,250"><g id="svgg"><path id="path0" d="M261.000 145.204 C 260.560 145.396,254.710 147.645,248.000 150.203 C 241.290 152.760,235.350 155.044,234.800 155.279 C 233.530 155.822,232.026 156.424,231.000 156.800 C 230.560 156.961,229.750 157.279,229.200 157.506 C 228.650 157.733,227.570 158.136,226.800 158.400 C 225.191 158.952,224.250 159.308,222.700 159.946 C 222.095 160.196,221.105 160.604,220.500 160.854 C 219.190 161.394,218.754 161.562,214.600 163.136 C 209.007 165.255,195.431 170.438,194.600 170.772 C 194.160 170.948,193.350 171.279,192.800 171.506 C 192.250 171.733,191.170 172.136,190.400 172.400 C 188.681 172.990,187.753 173.344,186.200 174.000 C 185.540 174.279,184.640 174.639,184.200 174.800 C 183.760 174.961,182.905 175.297,182.300 175.546 C 180.211 176.408,179.387 176.729,176.000 178.000 C 171.737 179.600,171.232 179.795,170.000 180.315 C 169.450 180.547,165.850 181.936,162.000 183.400 C 158.150 184.864,154.640 186.210,154.200 186.391 C 153.760 186.572,152.770 186.936,152.000 187.200 C 150.391 187.752,149.450 188.108,147.900 188.746 C 147.295 188.996,146.395 189.356,145.900 189.546 C 144.761 189.985,143.283 190.576,142.000 191.106 C 141.450 191.333,140.370 191.739,139.600 192.007 C 138.830 192.275,137.437 192.833,136.504 193.247 C 135.572 193.661,134.573 194.000,134.284 194.000 C 133.996 194.000,133.589 194.153,133.380 194.340 C 133.171 194.527,130.619 195.625,127.708 196.780 C 115.901 201.466,114.411 205.504,123.418 208.408 C 124.948 208.901,126.560 209.441,127.000 209.607 C 127.440 209.773,128.610 210.127,129.600 210.393 C 130.590 210.660,131.713 211.040,132.095 211.239 C 132.477 211.438,133.064 211.600,133.400 211.600 C 133.736 211.600,134.323 211.762,134.705 211.961 C 135.087 212.160,136.210 212.540,137.200 212.807 C 138.190 213.073,139.360 213.430,139.800 213.600 C 140.240 213.770,141.410 214.133,142.400 214.408 C 143.390 214.683,145.190 215.228,146.400 215.620 C 158.621 219.581,158.243 219.557,162.595 216.661 C 164.463 215.417,166.091 214.400,166.211 214.400 C 166.332 214.400,168.037 213.320,170.000 212.000 C 171.963 210.680,173.756 209.600,173.985 209.600 C 174.213 209.600,174.400 209.420,174.400 209.200 C 174.400 208.980,174.636 208.800,174.925 208.800 C 175.213 208.800,175.836 208.440,176.308 208.000 C 176.780 207.560,177.283 207.200,177.425 207.200 C 177.568 207.200,178.484 206.660,179.462 206.000 C 180.440 205.340,181.319 204.800,181.415 204.800 C 181.597 204.800,189.000 200.077,190.884 198.758 C 191.480 198.341,192.127 198.000,192.322 198.000 C 192.517 198.000,193.002 197.640,193.400 197.200 C 193.798 196.760,194.284 196.400,194.480 196.400 C 194.676 196.400,196.170 195.500,197.800 194.400 C 199.430 193.300,200.952 192.400,201.182 192.400 C 201.412 192.400,201.600 192.220,201.600 192.000 C 201.600 191.780,201.774 191.600,201.987 191.600 C 202.343 191.600,206.860 188.865,207.818 188.069 C 208.048 187.878,208.431 187.649,208.669 187.561 C 208.907 187.472,210.935 186.230,213.175 184.800 C 215.415 183.370,219.082 181.030,221.324 179.600 C 223.566 178.170,225.895 176.745,226.500 176.432 C 227.105 176.120,227.600 175.715,227.600 175.532 C 227.600 175.350,227.784 175.200,228.009 175.200 C 228.234 175.200,229.778 174.300,231.439 173.200 C 233.100 172.100,234.566 171.200,234.698 171.200 C 234.829 171.200,235.221 170.944,235.569 170.632 C 236.755 169.564,240.314 168.000,241.558 168.000 C 243.357 168.000,243.179 169.170,241.100 171.018 C 240.165 171.849,238.025 173.805,236.345 175.364 C 231.765 179.615,227.466 183.488,225.739 184.919 C 224.893 185.620,222.850 187.475,221.200 189.041 C 219.550 190.606,217.772 192.228,217.249 192.644 C 216.725 193.060,215.356 194.300,214.205 195.400 C 213.055 196.500,211.143 198.203,209.957 199.184 C 208.770 200.165,206.720 201.992,205.400 203.244 C 204.080 204.496,202.111 206.303,201.025 207.260 C 199.939 208.217,198.310 209.720,197.406 210.600 C 196.501 211.480,194.420 213.366,192.781 214.791 C 191.141 216.216,189.528 217.656,189.197 217.991 C 188.865 218.326,187.594 219.500,186.373 220.600 C 185.151 221.700,182.768 223.846,181.076 225.368 C 177.428 228.651,177.365 229.021,180.100 231.096 C 186.428 235.896,197.944 244.276,198.857 244.746 C 199.438 245.044,203.229 247.744,207.282 250.744 C 211.334 253.745,216.501 257.550,218.764 259.200 C 221.027 260.850,223.086 262.386,223.339 262.613 C 223.593 262.840,224.430 263.462,225.200 263.994 C 225.970 264.526,226.690 265.061,226.800 265.184 C 227.154 265.577,232.553 269.397,234.066 270.324 C 240.378 274.194,246.800 270.501,246.800 263.000 C 246.800 262.591,246.974 261.704,247.187 261.028 C 247.399 260.353,247.869 258.270,248.232 256.400 C 248.594 254.530,249.051 252.280,249.248 251.400 C 249.444 250.520,249.762 248.990,249.954 248.000 C 250.391 245.744,252.888 233.856,253.987 228.800 C 254.725 225.402,255.842 220.129,256.847 215.300 C 257.041 214.365,257.388 212.745,257.618 211.700 C 257.848 210.655,258.200 208.990,258.400 208.000 C 258.600 207.010,258.952 205.345,259.182 204.300 C 259.799 201.498,260.274 199.271,260.782 196.800 C 261.031 195.590,261.407 193.835,261.617 192.900 C 262.114 190.693,262.620 188.334,263.182 185.600 C 263.996 181.643,264.723 178.273,265.641 174.200 C 265.840 173.320,266.168 171.700,266.371 170.600 C 266.574 169.500,267.276 166.170,267.932 163.200 C 270.232 152.788,270.343 150.021,268.572 147.305 C 267.299 145.353,263.238 144.226,261.000 145.204 " stroke="none" fill="#f4f6f9" fill-rule="evenodd"></path><path id="path1" d="M262.705 144.683 C 263.202 144.779,263.922 144.775,264.305 144.675 C 264.687 144.575,264.280 144.496,263.400 144.501 C 262.520 144.505,262.207 144.587,262.705 144.683 M254.897 147.103 C 253.521 147.667,252.463 148.196,252.546 148.280 C 252.630 148.363,254.026 147.894,255.649 147.236 C 257.272 146.579,258.330 146.050,258.000 146.059 C 257.670 146.069,256.274 146.539,254.897 147.103 M269.166 148.609 C 269.379 149.264,269.648 150.160,269.764 150.600 C 269.880 151.040,269.897 150.696,269.802 149.835 C 269.707 148.974,269.438 148.078,269.204 147.844 C 268.903 147.543,268.892 147.768,269.166 148.609 M268.250 161.650 C 267.917 163.317,268.240 163.640,268.600 162.000 C 268.752 161.309,268.793 160.659,268.691 160.558 C 268.589 160.456,268.391 160.947,268.250 161.650 M212.497 163.503 C 211.121 164.067,210.063 164.596,210.146 164.680 C 210.230 164.763,211.626 164.294,213.249 163.636 C 214.872 162.979,215.930 162.450,215.600 162.459 C 215.270 162.469,213.874 162.939,212.497 163.503 M267.450 165.250 C 267.117 166.917,267.440 167.240,267.800 165.600 C 267.952 164.909,267.993 164.259,267.891 164.158 C 267.789 164.056,267.591 164.547,267.450 165.250 M266.622 169.022 C 266.472 169.825,266.428 170.562,266.526 170.660 C 266.624 170.757,266.827 170.181,266.978 169.378 C 267.128 168.575,267.172 167.838,267.074 167.740 C 266.976 167.643,266.773 168.219,266.622 169.022 M238.200 169.044 C 237.100 169.607,235.916 170.322,235.569 170.634 C 235.221 170.945,234.829 171.200,234.698 171.200 C 234.566 171.200,233.100 172.100,231.439 173.200 C 229.778 174.300,228.234 175.200,228.009 175.200 C 227.784 175.200,227.600 175.350,227.600 175.532 C 227.600 175.715,227.105 176.120,226.500 176.432 C 225.895 176.745,223.566 178.170,221.324 179.600 C 219.082 181.030,215.415 183.370,213.175 184.800 C 210.935 186.230,208.907 187.472,208.669 187.561 C 208.431 187.649,208.048 187.878,207.818 188.069 C 206.860 188.865,202.343 191.600,201.987 191.600 C 201.774 191.600,201.600 191.780,201.600 192.000 C 201.600 192.220,201.412 192.400,201.182 192.400 C 200.952 192.400,199.430 193.300,197.800 194.400 C 196.170 195.500,194.676 196.400,194.480 196.400 C 194.284 196.400,193.798 196.760,193.400 197.200 C 193.002 197.640,192.517 198.000,192.322 198.000 C 192.127 198.000,191.480 198.341,190.884 198.758 C 189.000 200.077,181.597 204.800,181.415 204.800 C 181.319 204.800,180.440 205.340,179.462 206.000 C 178.484 206.660,177.568 207.200,177.425 207.200 C 177.283 207.200,176.780 207.560,176.308 208.000 C 175.836 208.440,175.213 208.800,174.925 208.800 C 174.636 208.800,174.400 208.980,174.400 209.200 C 174.400 209.420,174.213 209.600,173.985 209.600 C 173.756 209.600,171.963 210.680,170.000 212.000 C 168.037 213.320,166.332 214.400,166.211 214.400 C 166.091 214.400,164.463 215.417,162.595 216.661 C 160.295 218.191,158.819 218.911,158.026 218.888 C 156.883 218.856,156.873 218.873,157.602 219.602 C 158.284 220.284,158.630 221.149,159.597 224.600 C 159.783 225.260,160.291 226.970,160.727 228.400 C 161.163 229.830,162.172 233.160,162.970 235.800 C 163.768 238.440,165.056 242.670,165.834 245.200 C 166.611 247.730,167.598 250.970,168.026 252.400 C 171.176 262.926,171.294 263.234,172.529 264.157 C 173.598 264.954,173.459 264.965,178.149 263.715 C 178.967 263.497,182.057 260.639,193.705 249.328 C 196.509 246.604,198.594 244.873,198.867 245.041 C 199.148 245.215,199.214 245.146,199.038 244.862 C 198.881 244.608,198.582 244.400,198.373 244.400 C 198.054 244.400,187.722 236.877,180.100 231.096 C 177.365 229.021,177.428 228.651,181.076 225.368 C 182.768 223.846,185.151 221.700,186.373 220.600 C 187.594 219.500,188.865 218.326,189.197 217.991 C 189.528 217.656,191.141 216.216,192.781 214.791 C 194.420 213.366,196.501 211.480,197.406 210.600 C 198.310 209.720,199.939 208.217,201.025 207.260 C 202.111 206.303,204.080 204.496,205.400 203.244 C 206.720 201.992,208.770 200.165,209.957 199.184 C 211.143 198.203,213.055 196.500,214.205 195.400 C 215.356 194.300,216.725 193.060,217.249 192.644 C 217.772 192.228,219.550 190.606,221.200 189.041 C 222.850 187.475,224.893 185.620,225.739 184.919 C 227.466 183.488,231.765 179.615,236.345 175.364 C 238.025 173.805,240.165 171.849,241.100 171.018 C 244.295 168.178,242.405 166.892,238.200 169.044 M265.829 173.029 C 265.681 173.615,265.638 174.172,265.732 174.266 C 265.827 174.360,266.024 173.958,266.171 173.371 C 266.319 172.785,266.362 172.228,266.268 172.134 C 266.173 172.040,265.976 172.442,265.829 173.029 M265.029 176.629 C 264.881 177.215,264.838 177.772,264.932 177.866 C 265.027 177.960,265.224 177.558,265.371 176.971 C 265.519 176.385,265.562 175.828,265.468 175.734 C 265.373 175.640,265.176 176.042,265.029 176.629 M174.000 178.400 C 173.010 178.815,172.470 179.152,172.800 179.148 C 173.472 179.140,176.828 177.663,176.200 177.652 C 175.980 177.648,174.990 177.985,174.000 178.400 M264.200 180.400 C 264.048 181.091,264.007 181.741,264.109 181.842 C 264.211 181.944,264.409 181.453,264.550 180.750 C 264.883 179.083,264.560 178.760,264.200 180.400 M162.600 182.829 C 161.720 183.252,161.438 183.486,161.974 183.349 C 163.439 182.973,165.486 182.029,164.800 182.045 C 164.470 182.053,163.480 182.406,162.600 182.829 M263.473 183.753 C 263.323 184.145,263.211 184.766,263.225 185.133 C 263.242 185.575,263.381 185.474,263.637 184.834 C 263.849 184.303,263.961 183.682,263.885 183.454 C 263.809 183.227,263.624 183.361,263.473 183.753 M262.629 187.829 C 262.481 188.415,262.438 188.972,262.532 189.066 C 262.627 189.160,262.824 188.758,262.971 188.171 C 263.119 187.585,263.162 187.028,263.068 186.934 C 262.973 186.840,262.776 187.242,262.629 187.829 M261.873 191.353 C 261.723 191.745,261.611 192.366,261.625 192.733 C 261.642 193.175,261.781 193.074,262.037 192.434 C 262.249 191.903,262.361 191.282,262.285 191.054 C 262.209 190.827,262.024 190.961,261.873 191.353 M128.154 196.162 C 122.676 198.382,119.600 199.928,119.600 200.462 C 119.600 200.634,120.221 200.354,120.980 199.839 C 121.739 199.324,124.754 197.952,127.680 196.791 C 130.606 195.630,133.171 194.527,133.380 194.340 C 133.963 193.819,133.765 193.888,128.154 196.162 M261.049 195.015 C 260.912 195.373,260.816 196.056,260.836 196.533 C 260.862 197.147,260.985 197.008,261.259 196.056 C 261.657 194.672,261.494 193.858,261.049 195.015 M260.256 198.884 C 260.121 199.388,260.027 200.160,260.046 200.600 C 260.065 201.040,260.245 200.698,260.446 199.840 C 260.836 198.178,260.670 197.340,260.256 198.884 M259.449 202.615 C 259.312 202.973,259.218 203.656,259.241 204.133 C 259.267 204.681,259.403 204.486,259.610 203.603 C 259.960 202.116,259.865 201.533,259.449 202.615 M117.446 203.425 C 117.198 204.072,118.087 206.159,118.798 206.599 C 119.020 206.736,118.837 206.231,118.393 205.478 C 117.948 204.724,117.697 203.813,117.835 203.453 C 117.973 203.094,117.996 202.800,117.886 202.800 C 117.776 202.800,117.578 203.081,117.446 203.425 M258.649 206.215 C 258.512 206.573,258.416 207.256,258.436 207.733 C 258.462 208.347,258.585 208.208,258.859 207.256 C 259.257 205.872,259.094 205.058,258.649 206.215 M257.849 210.215 C 257.712 210.573,257.618 211.256,257.641 211.733 C 257.667 212.281,257.803 212.086,258.010 211.203 C 258.360 209.716,258.265 209.133,257.849 210.215 M257.049 213.815 C 256.912 214.173,256.821 214.946,256.846 215.533 C 256.880 216.332,256.970 216.198,257.204 215.000 C 257.535 213.300,257.462 212.740,257.049 213.815 M144.000 215.200 C 144.330 215.413,144.870 215.588,145.200 215.588 C 145.733 215.588,145.733 215.545,145.200 215.200 C 144.870 214.987,144.330 214.812,144.000 214.812 C 143.467 214.812,143.467 214.855,144.000 215.200 M256.054 218.800 C 256.019 219.350,255.896 220.250,255.783 220.800 L 255.577 221.800 256.007 220.815 C 256.243 220.274,256.365 219.374,256.278 218.815 L 256.120 217.800 256.054 218.800 M253.649 230.200 C 253.616 230.640,253.496 231.450,253.383 232.000 L 253.177 233.000 253.606 232.019 C 253.842 231.479,253.961 230.669,253.872 230.219 C 253.713 229.421,253.707 229.421,253.649 230.200 M252.849 233.800 C 252.816 234.240,252.696 235.050,252.583 235.600 L 252.377 236.600 252.806 235.619 C 253.042 235.079,253.161 234.269,253.072 233.819 C 252.913 233.021,252.907 233.021,252.849 233.800 M251.050 242.450 C 250.909 243.153,250.869 243.802,250.959 243.892 C 251.050 243.983,251.248 243.491,251.400 242.800 C 251.552 242.109,251.593 241.459,251.491 241.358 C 251.389 241.256,251.191 241.747,251.050 242.450 M250.229 246.229 C 250.081 246.815,250.038 247.372,250.132 247.466 C 250.227 247.560,250.424 247.158,250.571 246.571 C 250.719 245.985,250.762 245.428,250.668 245.334 C 250.573 245.240,250.376 245.642,250.229 246.229 M202.144 247.109 C 202.460 247.621,204.800 249.353,204.800 249.075 C 204.800 248.976,204.139 248.391,203.332 247.775 C 202.524 247.159,201.989 246.859,202.144 247.109 M249.429 250.229 C 249.281 250.815,249.238 251.372,249.332 251.466 C 249.427 251.560,249.624 251.158,249.771 250.571 C 249.919 249.985,249.962 249.428,249.868 249.334 C 249.773 249.240,249.576 249.642,249.429 250.229 M248.629 253.829 C 248.481 254.415,248.438 254.972,248.532 255.066 C 248.627 255.160,248.824 254.758,248.971 254.171 C 249.119 253.585,249.162 253.028,249.068 252.934 C 248.973 252.840,248.776 253.242,248.629 253.829 M213.200 255.343 C 213.200 255.443,214.119 256.185,215.242 256.992 C 216.365 257.799,217.165 258.268,217.021 258.034 C 216.720 257.548,213.200 255.068,213.200 255.343 M247.850 257.650 C 247.709 258.353,247.669 259.002,247.759 259.092 C 247.850 259.183,248.048 258.691,248.200 258.000 C 248.352 257.309,248.393 256.659,248.291 256.558 C 248.189 256.456,247.991 256.947,247.850 257.650 M217.600 258.546 C 217.600 258.656,218.140 259.130,218.800 259.600 C 219.460 260.070,220.000 260.364,220.000 260.254 C 220.000 260.144,219.460 259.670,218.800 259.200 C 218.140 258.730,217.600 258.436,217.600 258.546 M220.800 260.949 C 220.800 261.035,221.430 261.586,222.200 262.173 C 222.970 262.760,223.598 263.097,223.595 262.920 C 223.592 262.744,222.962 262.193,222.195 261.696 C 221.428 261.199,220.800 260.863,220.800 260.949 M247.049 261.415 C 246.912 261.773,246.815 262.366,246.834 262.733 C 246.853 263.100,247.027 262.869,247.221 262.220 C 247.598 260.958,247.465 260.333,247.049 261.415 M229.744 267.509 C 230.060 268.021,232.400 269.753,232.400 269.475 C 232.400 269.376,231.739 268.791,230.932 268.175 C 230.124 267.559,229.589 267.259,229.744 267.509 M243.826 270.300 C 242.962 271.405,242.893 271.590,243.563 271.004 C 244.365 270.304,245.423 268.800,245.114 268.800 C 245.051 268.800,244.472 269.475,243.826 270.300 M232.800 269.751 C 232.800 270.203,236.262 271.932,237.600 272.148 C 238.856 272.350,238.823 272.315,237.278 271.806 C 236.331 271.494,234.936 270.855,234.178 270.386 C 233.420 269.918,232.800 269.632,232.800 269.751 " stroke="none" fill="#aeccde" fill-rule="evenodd"></path><path id="path2" d="M190.921 59.232 C 190.438 59.412,188.409 59.592,186.412 59.632 C 184.416 59.672,182.685 59.862,182.567 60.053 C 182.449 60.244,181.272 60.400,179.950 60.400 C 178.629 60.400,177.229 60.570,176.841 60.778 C 176.452 60.986,175.294 61.200,174.267 61.253 C 173.240 61.306,172.400 61.496,172.400 61.675 C 172.400 61.854,171.601 62.000,170.624 62.000 C 169.647 62.000,168.736 62.180,168.600 62.400 C 168.464 62.620,167.643 62.800,166.776 62.800 C 165.909 62.800,165.200 62.980,165.200 63.200 C 165.200 63.420,164.570 63.600,163.800 63.600 C 163.030 63.600,162.400 63.780,162.400 64.000 C 162.400 64.220,161.781 64.400,161.024 64.400 C 160.267 64.400,159.536 64.580,159.400 64.800 C 159.264 65.020,158.623 65.200,157.976 65.200 C 157.329 65.200,156.800 65.380,156.800 65.600 C 156.800 65.820,156.260 66.000,155.600 66.000 C 154.940 66.000,154.400 66.180,154.400 66.400 C 154.400 66.620,153.860 66.800,153.200 66.800 C 152.540 66.800,152.000 66.980,152.000 67.200 C 152.000 67.420,151.640 67.600,151.200 67.600 C 150.760 67.600,150.400 67.780,150.400 68.000 C 150.400 68.220,149.860 68.400,149.200 68.400 C 148.540 68.400,148.000 68.580,148.000 68.800 C 148.000 69.020,147.550 69.200,147.000 69.200 C 146.450 69.200,146.000 69.380,146.000 69.600 C 146.000 69.820,145.640 70.000,145.200 70.000 C 144.760 70.000,144.400 70.180,144.400 70.400 C 144.400 70.620,144.166 70.800,143.880 70.800 C 143.144 70.800,141.207 71.741,141.203 72.100 C 141.201 72.265,140.857 72.400,140.438 72.400 C 139.531 72.400,136.400 74.008,136.400 74.474 C 136.400 74.653,136.070 74.800,135.667 74.800 C 135.263 74.800,134.798 74.935,134.633 75.100 C 134.468 75.265,134.213 75.407,134.067 75.415 C 133.550 75.445,130.594 76.976,130.072 77.484 C 129.782 77.767,129.107 78.109,128.572 78.243 C 128.037 78.377,127.600 78.647,127.600 78.843 C 127.600 79.040,127.330 79.200,127.000 79.200 C 126.670 79.200,126.400 79.350,126.400 79.532 C 126.400 79.715,125.905 80.119,125.300 80.430 C 124.695 80.740,123.909 81.311,123.553 81.697 C 123.197 82.084,122.652 82.400,122.341 82.400 C 122.031 82.400,121.517 82.760,121.200 83.200 C 120.883 83.640,120.385 84.000,120.094 84.000 C 119.802 84.000,119.114 84.450,118.564 85.000 C 118.014 85.550,117.398 86.000,117.195 86.000 C 116.992 86.000,116.197 86.630,115.427 87.400 C 114.657 88.170,113.796 88.804,113.513 88.809 C 113.231 88.814,112.381 89.534,111.624 90.409 C 110.867 91.284,110.022 92.000,109.747 92.000 C 109.471 92.000,108.965 92.400,108.623 92.889 C 108.280 93.378,108.000 93.645,108.000 93.481 C 108.000 93.177,93.714 107.424,92.100 109.338 C 91.605 109.926,91.200 110.519,91.200 110.656 C 91.200 110.794,90.876 111.197,90.481 111.553 C 90.086 111.909,89.328 112.830,88.796 113.600 C 88.265 114.370,87.329 115.477,86.715 116.060 C 86.102 116.644,85.600 117.327,85.600 117.579 C 85.600 117.830,85.164 118.472,84.631 119.005 C 84.098 119.538,83.546 120.340,83.404 120.787 C 83.262 121.234,82.978 121.600,82.773 121.600 C 82.568 121.600,82.400 121.870,82.400 122.200 C 82.400 122.530,82.220 122.800,82.000 122.800 C 81.780 122.800,81.600 122.988,81.600 123.217 C 81.600 123.446,81.240 124.020,80.800 124.492 C 80.360 124.964,79.776 125.856,79.503 126.475 C 79.229 127.094,78.869 127.600,78.702 127.600 C 78.536 127.600,78.400 127.772,78.400 127.982 C 78.400 128.193,77.874 129.257,77.231 130.347 C 76.588 131.437,76.153 132.420,76.265 132.531 C 76.376 132.642,76.092 133.108,75.633 133.567 C 75.175 134.025,74.800 134.670,74.800 135.000 C 74.800 135.330,74.620 135.600,74.400 135.600 C 74.180 135.600,74.000 135.960,74.000 136.400 C 74.000 136.840,73.820 137.200,73.600 137.200 C 73.380 137.200,73.200 137.453,73.200 137.762 C 73.200 138.071,72.854 139.016,72.430 139.862 C 72.007 140.708,71.423 141.985,71.133 142.700 C 70.842 143.415,70.469 144.000,70.302 144.000 C 70.136 144.000,70.000 144.349,70.000 144.776 C 70.000 145.203,69.820 145.664,69.600 145.800 C 69.380 145.936,69.200 146.487,69.200 147.024 C 69.200 147.561,69.020 148.000,68.800 148.000 C 68.580 148.000,68.400 148.439,68.400 148.976 C 68.400 149.513,68.220 150.064,68.000 150.200 C 67.780 150.336,67.600 150.797,67.600 151.224 C 67.600 151.651,67.420 152.000,67.200 152.000 C 66.980 152.000,66.800 152.540,66.800 153.200 C 66.800 153.860,66.620 154.400,66.400 154.400 C 66.180 154.400,66.000 154.940,66.000 155.600 C 66.000 156.260,65.820 156.800,65.600 156.800 C 65.380 156.800,65.200 157.192,65.200 157.672 C 65.200 158.592,64.540 160.928,63.951 162.095 C 63.758 162.477,63.600 163.332,63.600 163.995 C 63.600 164.658,63.420 165.200,63.200 165.200 C 62.980 165.200,62.800 165.909,62.800 166.776 C 62.800 167.643,62.620 168.464,62.400 168.600 C 62.180 168.736,62.000 169.636,62.000 170.600 C 62.000 171.564,61.820 172.464,61.600 172.600 C 61.380 172.736,61.200 173.791,61.200 174.944 C 61.200 176.097,61.034 177.211,60.831 177.420 C 60.469 177.793,60.244 180.030,59.808 187.600 C 59.688 189.690,59.411 193.841,59.194 196.825 C 58.941 200.310,58.937 203.028,59.183 204.425 C 59.394 205.621,59.657 208.940,59.767 211.800 C 60.006 217.963,60.653 223.231,62.002 230.000 C 62.243 231.210,62.541 232.876,62.663 233.703 C 62.785 234.529,63.045 235.305,63.242 235.426 C 63.439 235.548,63.600 236.256,63.600 237.000 C 63.600 237.744,63.780 238.464,64.000 238.600 C 64.220 238.736,64.400 239.366,64.400 240.000 C 64.400 240.634,64.580 241.264,64.800 241.400 C 65.020 241.536,65.200 242.177,65.200 242.824 C 65.200 243.471,65.380 244.000,65.600 244.000 C 65.820 244.000,66.000 244.540,66.000 245.200 C 66.000 245.860,66.180 246.400,66.400 246.400 C 66.620 246.400,66.800 246.940,66.800 247.600 C 66.800 248.260,66.980 248.800,67.200 248.800 C 67.420 248.800,67.600 249.149,67.600 249.576 C 67.600 250.003,67.780 250.464,68.000 250.600 C 68.220 250.736,68.400 251.287,68.400 251.824 C 68.400 252.361,68.580 252.800,68.800 252.800 C 69.020 252.800,69.200 253.155,69.200 253.588 C 69.200 254.021,69.560 255.017,70.000 255.800 C 70.440 256.583,70.800 257.489,70.800 257.812 C 70.800 258.135,70.980 258.400,71.200 258.400 C 71.420 258.400,71.600 258.670,71.600 259.000 C 71.600 259.330,71.780 259.600,72.000 259.600 C 72.220 259.600,72.400 260.140,72.400 260.800 C 72.400 261.460,72.580 262.000,72.800 262.000 C 73.020 262.000,73.200 262.360,73.200 262.800 C 73.200 263.240,73.380 263.600,73.600 263.600 C 73.820 263.600,74.000 263.870,74.000 264.200 C 74.000 264.530,74.159 264.800,74.353 264.800 C 74.657 264.800,75.172 265.896,75.346 266.915 C 75.376 267.088,75.640 267.378,75.934 267.559 C 76.228 267.741,76.427 267.959,76.375 268.045 C 76.162 268.402,76.955 270.189,78.039 271.796 C 78.677 272.742,79.200 273.675,79.200 273.870 C 79.200 274.064,79.560 274.483,80.000 274.800 C 80.440 275.117,80.800 275.657,80.800 276.000 C 80.800 276.343,81.160 276.883,81.600 277.200 C 82.040 277.517,82.400 278.057,82.400 278.400 C 82.400 278.743,82.760 279.283,83.200 279.600 C 83.640 279.917,84.000 280.409,84.000 280.692 C 84.000 280.975,84.540 281.772,85.200 282.463 C 85.860 283.154,86.400 283.922,86.400 284.171 C 86.400 284.420,86.760 284.883,87.200 285.200 C 87.640 285.517,88.000 286.007,88.000 286.288 C 88.000 286.570,88.180 286.800,88.400 286.800 C 88.620 286.800,88.800 286.985,88.800 287.211 C 88.800 287.436,89.565 288.402,90.500 289.356 C 92.481 291.378,93.676 292.800,93.393 292.800 C 93.017 292.800,107.006 306.612,108.592 307.805 C 109.465 308.462,110.902 309.675,111.787 310.500 C 112.672 311.325,113.549 312.000,113.737 312.000 C 113.925 312.000,114.583 312.540,115.200 313.200 C 115.817 313.860,116.537 314.400,116.800 314.400 C 117.063 314.400,117.783 314.940,118.400 315.600 C 119.017 316.260,119.769 316.800,120.072 316.800 C 120.375 316.800,120.883 317.160,121.200 317.600 C 121.517 318.040,122.057 318.400,122.400 318.400 C 122.743 318.400,123.283 318.760,123.600 319.200 C 123.917 319.640,124.457 320.000,124.800 320.000 C 125.143 320.000,125.683 320.360,126.000 320.800 C 126.317 321.240,126.698 321.600,126.847 321.600 C 126.996 321.600,128.291 322.313,129.725 323.184 C 131.159 324.055,132.843 324.894,133.466 325.048 C 134.090 325.202,134.891 325.659,135.247 326.064 C 135.603 326.469,136.188 326.800,136.547 326.800 C 136.906 326.800,137.200 326.980,137.200 327.200 C 137.200 327.420,137.465 327.600,137.788 327.600 C 138.111 327.600,139.017 327.960,139.800 328.400 C 140.583 328.840,141.579 329.200,142.012 329.200 C 142.445 329.200,142.800 329.380,142.800 329.600 C 142.800 329.820,143.070 330.000,143.400 330.000 C 143.730 330.000,144.000 330.180,144.000 330.400 C 144.000 330.620,144.349 330.800,144.776 330.800 C 145.203 330.800,145.664 330.980,145.800 331.200 C 145.936 331.420,146.487 331.600,147.024 331.600 C 147.561 331.600,148.000 331.780,148.000 332.000 C 148.000 332.220,148.360 332.400,148.800 332.400 C 149.240 332.400,149.600 332.580,149.600 332.800 C 149.600 333.020,150.140 333.200,150.800 333.200 C 151.460 333.200,152.000 333.380,152.000 333.600 C 152.000 333.820,152.540 334.000,153.200 334.000 C 153.860 334.000,154.400 334.180,154.400 334.400 C 154.400 334.620,154.940 334.800,155.600 334.800 C 156.260 334.800,156.800 334.980,156.800 335.200 C 156.800 335.420,157.340 335.600,158.000 335.600 C 158.660 335.600,159.200 335.760,159.200 335.956 C 159.200 336.291,160.120 336.516,163.700 337.057 C 164.525 337.182,165.200 337.445,165.200 337.642 C 165.200 337.839,165.920 338.000,166.800 338.000 C 167.680 338.000,168.400 338.180,168.400 338.400 C 168.400 338.620,169.300 338.800,170.400 338.800 C 171.500 338.800,172.400 338.980,172.400 339.200 C 172.400 339.420,173.354 339.600,174.520 339.600 C 175.686 339.600,176.811 339.765,177.020 339.968 C 177.229 340.170,178.570 340.428,180.000 340.541 C 181.430 340.654,183.230 340.842,184.000 340.959 C 189.984 341.867,212.336 341.527,221.000 340.396 C 222.760 340.167,225.145 339.877,226.300 339.752 C 227.455 339.628,228.400 339.363,228.400 339.163 C 228.400 338.963,229.300 338.800,230.400 338.800 C 231.500 338.800,232.400 338.620,232.400 338.400 C 232.400 338.180,233.109 338.000,233.976 338.000 C 234.843 338.000,235.664 337.820,235.800 337.600 C 235.936 337.380,236.656 337.200,237.400 337.200 C 238.144 337.200,238.864 337.020,239.000 336.800 C 239.136 336.580,239.676 336.400,240.200 336.400 C 240.724 336.400,241.264 336.220,241.400 336.000 C 241.536 335.780,241.999 335.600,242.430 335.600 C 243.538 335.600,246.400 334.665,246.400 334.303 C 246.400 334.136,246.940 334.000,247.600 334.000 C 248.260 334.000,248.800 333.820,248.800 333.600 C 248.800 333.380,249.340 333.200,250.000 333.200 C 250.660 333.200,251.200 333.020,251.200 332.800 C 251.200 332.580,251.639 332.400,252.176 332.400 C 252.713 332.400,253.264 332.220,253.400 332.000 C 253.536 331.780,253.997 331.600,254.424 331.600 C 254.851 331.600,255.200 331.420,255.200 331.200 C 255.200 330.980,255.650 330.800,256.200 330.800 C 256.750 330.800,257.200 330.620,257.200 330.400 C 257.200 330.180,257.560 330.000,258.000 330.000 C 258.440 330.000,258.800 329.820,258.800 329.600 C 258.800 329.380,259.160 329.200,259.600 329.200 C 260.040 329.200,260.400 329.020,260.400 328.800 C 260.400 328.580,260.760 328.400,261.200 328.400 C 261.640 328.400,262.000 328.220,262.000 328.000 C 262.000 327.780,262.360 327.600,262.800 327.600 C 263.240 327.600,263.600 327.420,263.600 327.200 C 263.600 326.980,263.960 326.800,264.400 326.800 C 264.840 326.800,265.200 326.620,265.200 326.400 C 265.200 326.180,265.560 326.000,266.000 326.000 C 266.440 326.000,266.800 325.820,266.800 325.600 C 266.800 325.380,267.135 325.200,267.544 325.200 C 267.953 325.200,268.951 324.750,269.762 324.200 C 270.572 323.650,271.330 323.200,271.446 323.200 C 271.561 323.200,272.441 322.660,273.400 322.000 C 274.359 321.340,275.297 320.800,275.484 320.800 C 275.671 320.800,276.083 320.440,276.400 320.000 C 276.717 319.560,277.257 319.200,277.600 319.200 C 277.943 319.200,278.483 318.840,278.800 318.400 C 279.117 317.960,279.657 317.600,280.000 317.600 C 280.343 317.600,280.883 317.240,281.200 316.800 C 281.517 316.360,282.107 316.000,282.512 316.000 C 282.916 316.000,283.136 315.820,283.000 315.600 C 282.864 315.380,282.994 315.200,283.288 315.200 C 283.583 315.200,284.083 314.840,284.400 314.400 C 284.717 313.960,285.178 313.600,285.425 313.600 C 285.671 313.600,286.607 312.880,287.505 312.000 C 288.403 311.120,289.240 310.400,289.366 310.400 C 289.643 310.400,291.282 309.029,292.961 307.393 C 293.643 306.730,294.830 305.741,295.600 305.197 C 297.375 303.941,302.962 298.354,304.800 295.996 C 305.570 295.008,306.740 293.643,307.400 292.961 C 309.108 291.198,310.400 289.637,310.400 289.335 C 310.400 289.193,311.120 288.391,312.000 287.554 C 312.880 286.717,313.600 285.827,313.600 285.577 C 313.600 285.326,314.140 284.617,314.800 284.000 C 315.460 283.383,316.000 282.673,316.000 282.421 C 316.000 282.170,316.436 281.528,316.969 280.995 C 317.502 280.462,318.054 279.660,318.196 279.213 C 318.338 278.766,318.600 278.400,318.778 278.400 C 318.957 278.400,319.327 277.860,319.600 277.200 C 319.873 276.540,320.255 276.000,320.449 276.000 C 320.642 276.000,320.800 275.730,320.800 275.400 C 320.800 275.070,320.980 274.800,321.200 274.800 C 321.420 274.800,321.600 274.530,321.600 274.200 C 321.600 273.870,321.780 273.600,322.000 273.600 C 322.220 273.600,322.400 273.442,322.400 273.248 C 322.400 273.055,323.030 271.851,323.800 270.572 C 324.570 269.293,325.200 267.921,325.200 267.524 C 325.200 267.126,325.380 266.800,325.600 266.800 C 325.820 266.800,326.000 266.440,326.000 266.000 C 326.000 265.560,326.180 265.200,326.400 265.200 C 326.620 265.200,326.800 264.922,326.800 264.583 C 326.800 264.244,327.160 263.580,327.600 263.108 C 328.040 262.636,328.400 261.833,328.400 261.325 C 328.400 260.816,328.580 260.400,328.800 260.400 C 329.020 260.400,329.200 260.040,329.200 259.600 C 329.200 259.160,329.335 258.799,329.500 258.797 C 329.911 258.793,330.800 256.809,330.800 255.897 C 330.800 255.488,330.980 255.264,331.200 255.400 C 331.427 255.540,331.600 255.204,331.600 254.624 C 331.600 254.061,331.780 253.600,332.000 253.600 C 332.220 253.600,332.400 253.251,332.400 252.824 C 332.400 252.397,332.580 251.936,332.800 251.800 C 333.020 251.664,333.200 251.113,333.200 250.576 C 333.200 250.039,333.380 249.600,333.600 249.600 C 333.820 249.600,334.000 249.060,334.000 248.400 C 334.000 247.740,334.180 247.200,334.400 247.200 C 334.620 247.200,334.800 246.660,334.800 246.000 C 334.800 245.340,334.980 244.800,335.200 244.800 C 335.420 244.800,335.600 244.260,335.600 243.600 C 335.600 242.940,335.780 242.400,336.000 242.400 C 336.220 242.400,336.400 241.871,336.400 241.224 C 336.400 240.577,336.580 239.936,336.800 239.800 C 337.020 239.664,337.200 239.034,337.200 238.400 C 337.200 237.766,337.380 237.136,337.600 237.000 C 337.820 236.864,338.000 236.144,338.000 235.400 C 338.000 234.656,338.180 233.936,338.400 233.800 C 338.620 233.664,338.800 232.753,338.800 231.776 C 338.800 230.799,338.963 230.000,339.163 230.000 C 339.363 230.000,339.625 229.055,339.746 227.900 C 339.868 226.745,340.161 224.540,340.398 223.000 C 341.209 217.730,341.533 211.395,341.533 200.800 C 341.533 189.070,340.833 177.639,340.003 175.800 C 339.804 175.360,339.546 174.190,339.429 173.200 C 338.884 168.591,338.694 167.600,338.360 167.600 C 338.162 167.600,338.000 166.891,338.000 166.024 C 338.000 165.157,337.820 164.336,337.600 164.200 C 337.380 164.064,337.200 163.333,337.200 162.576 C 337.200 161.819,337.020 161.200,336.800 161.200 C 336.580 161.200,336.400 160.570,336.400 159.800 C 336.400 159.030,336.220 158.400,336.000 158.400 C 335.780 158.400,335.600 157.860,335.600 157.200 C 335.600 156.540,335.420 156.000,335.200 156.000 C 334.980 156.000,334.800 155.460,334.800 154.800 C 334.800 154.140,334.620 153.600,334.400 153.600 C 334.180 153.600,334.000 153.060,334.000 152.400 C 334.000 151.740,333.820 151.200,333.600 151.200 C 333.380 151.200,333.200 150.761,333.200 150.224 C 333.200 149.687,333.020 149.136,332.800 149.000 C 332.580 148.864,332.400 148.403,332.400 147.976 C 332.400 147.549,332.220 147.200,332.000 147.200 C 331.780 147.200,331.600 146.750,331.600 146.200 C 331.600 145.650,331.420 145.200,331.200 145.200 C 330.980 145.200,330.800 144.840,330.800 144.400 C 330.800 143.960,330.620 143.600,330.400 143.600 C 330.180 143.600,330.000 143.240,330.000 142.800 C 330.000 142.360,329.820 142.000,329.600 142.000 C 329.380 142.000,329.200 141.640,329.200 141.200 C 329.200 140.760,329.020 140.400,328.800 140.400 C 328.580 140.400,328.400 140.057,328.400 139.638 C 328.400 138.822,326.799 135.488,326.300 135.267 C 326.135 135.193,326.000 134.878,326.000 134.567 C 326.000 134.255,325.843 134.000,325.650 134.000 C 325.457 134.000,325.189 133.445,325.053 132.766 C 324.918 132.088,324.445 131.025,324.003 130.405 C 323.561 129.784,323.200 129.079,323.200 128.838 C 323.200 128.597,323.020 128.400,322.800 128.400 C 322.580 128.400,322.400 128.130,322.400 127.800 C 322.400 127.470,322.242 127.200,322.049 127.200 C 321.855 127.200,321.473 126.660,321.200 126.000 C 320.927 125.340,320.545 124.800,320.351 124.800 C 320.158 124.800,320.000 124.480,320.000 124.088 C 320.000 123.697,319.640 123.117,319.200 122.800 C 318.760 122.483,318.400 121.943,318.400 121.600 C 318.400 121.257,318.040 120.717,317.600 120.400 C 317.160 120.083,316.800 119.620,316.800 119.371 C 316.800 119.122,316.260 118.354,315.600 117.663 C 314.940 116.972,314.400 116.226,314.400 116.004 C 314.400 115.782,314.220 115.600,314.000 115.600 C 313.780 115.600,313.600 115.396,313.600 115.147 C 313.600 114.898,313.276 114.403,312.881 114.047 C 312.486 113.691,311.759 112.822,311.266 112.117 C 310.773 111.411,309.701 110.121,308.885 109.250 C 308.068 108.380,306.950 107.075,306.400 106.350 C 305.111 104.652,297.765 97.302,296.054 96.000 C 294.789 95.036,294.198 94.527,291.063 91.700 C 290.270 90.985,289.527 90.400,289.411 90.400 C 289.296 90.400,288.459 89.680,287.552 88.800 C 286.645 87.920,285.744 87.200,285.548 87.200 C 285.353 87.200,284.628 86.660,283.937 86.000 C 283.246 85.340,282.478 84.800,282.229 84.800 C 281.980 84.800,281.517 84.440,281.200 84.000 C 280.883 83.560,280.343 83.200,280.000 83.200 C 279.657 83.200,279.117 82.840,278.800 82.400 C 278.483 81.960,277.969 81.600,277.659 81.600 C 277.348 81.600,276.803 81.271,276.447 80.870 C 276.091 80.468,275.215 79.884,274.500 79.572 C 273.785 79.260,273.200 78.897,273.200 78.765 C 273.200 78.634,272.345 78.098,271.300 77.575 C 270.255 77.052,268.729 76.214,267.908 75.712 C 267.087 75.211,266.142 74.800,265.808 74.800 C 265.474 74.800,265.200 74.620,265.200 74.400 C 265.200 74.180,264.840 74.000,264.400 74.000 C 263.960 74.000,263.600 73.820,263.600 73.600 C 263.600 73.380,263.366 73.200,263.080 73.200 C 262.344 73.200,260.407 72.259,260.403 71.900 C 260.401 71.735,260.057 71.600,259.638 71.600 C 258.979 71.600,257.811 71.114,254.705 69.550 C 254.323 69.357,253.738 69.200,253.405 69.200 C 253.072 69.200,252.800 69.020,252.800 68.800 C 252.800 68.580,252.361 68.400,251.824 68.400 C 251.287 68.400,250.736 68.220,250.600 68.000 C 250.464 67.780,250.003 67.600,249.576 67.600 C 249.149 67.600,248.800 67.420,248.800 67.200 C 248.800 66.980,248.260 66.800,247.600 66.800 C 246.940 66.800,246.400 66.620,246.400 66.400 C 246.400 66.180,245.860 66.000,245.200 66.000 C 244.540 66.000,244.000 65.820,244.000 65.600 C 244.000 65.380,243.381 65.200,242.624 65.200 C 241.867 65.200,241.136 65.020,241.000 64.800 C 240.864 64.580,240.324 64.400,239.800 64.400 C 239.276 64.400,238.736 64.220,238.600 64.000 C 238.464 63.780,237.744 63.600,237.000 63.600 C 236.256 63.600,235.548 63.439,235.426 63.242 C 235.218 62.906,234.499 62.754,230.300 62.159 C 229.365 62.026,228.429 61.756,228.220 61.559 C 228.011 61.362,226.922 61.200,225.800 61.200 C 224.678 61.200,223.589 61.035,223.380 60.832 C 223.004 60.469,221.191 60.268,214.200 59.814 C 212.220 59.686,209.880 59.420,209.000 59.225 C 207.008 58.781,192.118 58.788,190.921 59.232 M265.600 144.303 C 269.866 145.154,271.677 150.161,270.192 157.000 C 269.858 158.540,269.388 160.700,269.149 161.800 C 268.909 162.900,268.572 164.520,268.400 165.400 C 268.228 166.280,267.868 167.990,267.600 169.200 C 267.332 170.410,266.952 172.165,266.756 173.100 C 266.560 174.035,266.208 175.655,265.974 176.700 C 265.740 177.745,265.451 179.320,265.333 180.200 C 265.215 181.080,264.956 181.971,264.759 182.180 C 264.562 182.389,264.400 183.208,264.400 184.000 C 264.400 184.792,264.238 185.611,264.041 185.820 C 263.844 186.029,263.574 186.965,263.441 187.900 C 263.308 188.835,263.092 190.365,262.959 191.300 C 262.826 192.235,262.556 193.171,262.359 193.380 C 262.162 193.589,262.000 194.433,262.000 195.256 C 262.000 196.079,261.820 196.864,261.600 197.000 C 261.380 197.136,261.200 197.946,261.200 198.800 C 261.200 199.654,261.020 200.464,260.800 200.600 C 260.580 200.736,260.400 201.636,260.400 202.600 C 260.400 203.564,260.220 204.464,260.000 204.600 C 259.780 204.736,259.600 205.521,259.600 206.344 C 259.600 207.167,259.438 208.011,259.241 208.220 C 259.044 208.429,258.785 209.320,258.667 210.200 C 258.549 211.080,258.250 212.700,258.004 213.800 C 257.757 214.900,257.464 216.430,257.353 217.200 C 257.242 217.970,256.995 218.960,256.806 219.400 C 256.616 219.840,256.368 220.920,256.253 221.800 C 256.078 223.141,254.704 229.873,252.742 239.000 C 252.221 241.427,251.686 243.992,251.200 246.400 C 251.000 247.390,250.638 249.100,250.396 250.200 C 250.154 251.300,249.864 252.830,249.753 253.600 C 249.642 254.370,249.393 255.360,249.200 255.800 C 248.871 256.551,248.698 257.469,248.144 261.400 C 248.020 262.280,247.756 263.171,247.559 263.380 C 247.362 263.589,247.200 264.266,247.200 264.885 C 247.200 265.504,247.041 266.323,246.847 266.705 C 246.652 267.087,246.254 267.940,245.962 268.600 C 242.984 275.318,236.356 274.194,225.200 265.079 C 224.870 264.809,223.970 264.150,223.200 263.614 C 222.430 263.077,221.710 262.531,221.600 262.400 C 221.490 262.269,220.770 261.729,220.000 261.200 C 219.230 260.671,218.510 260.131,218.400 260.000 C 218.290 259.869,217.570 259.329,216.800 258.800 C 216.030 258.271,215.310 257.731,215.200 257.599 C 215.090 257.467,214.102 256.738,213.005 255.979 C 211.908 255.221,210.770 254.374,210.475 254.099 C 210.181 253.823,209.099 253.025,208.070 252.325 C 207.042 251.625,206.110 250.951,206.000 250.826 C 205.890 250.702,204.900 249.979,203.800 249.221 C 202.700 248.462,201.710 247.733,201.600 247.601 C 201.490 247.469,200.799 246.942,200.065 246.429 L 198.730 245.496 196.665 247.487 C 195.529 248.583,191.399 252.611,187.487 256.439 C 179.483 264.272,178.153 265.172,174.562 265.189 C 171.689 265.202,170.701 264.321,169.866 261.000 C 169.755 260.560,169.275 258.940,168.799 257.400 C 168.323 255.860,167.788 254.060,167.611 253.400 C 167.134 251.634,164.131 241.787,163.202 238.947 C 162.761 237.599,162.400 236.124,162.400 235.671 C 162.400 235.218,162.220 234.736,162.000 234.600 C 161.780 234.464,161.600 234.001,161.600 233.571 C 161.600 233.141,161.442 232.477,161.249 232.095 C 160.660 230.928,160.000 228.592,160.000 227.672 C 160.000 227.192,159.820 226.800,159.600 226.800 C 159.380 226.800,159.200 226.348,159.200 225.795 C 159.200 225.242,159.038 224.477,158.839 224.095 C 158.640 223.713,158.255 222.646,157.983 221.725 C 157.462 219.959,157.183 219.773,153.600 218.807 C 152.610 218.540,151.487 218.160,151.105 217.961 C 150.723 217.762,150.059 217.600,149.629 217.600 C 149.199 217.600,148.736 217.420,148.600 217.200 C 148.464 216.980,147.834 216.800,147.200 216.800 C 146.566 216.800,145.936 216.620,145.800 216.400 C 145.664 216.180,145.201 216.000,144.771 216.000 C 144.341 216.000,143.677 215.838,143.295 215.639 C 142.913 215.440,141.790 215.063,140.800 214.800 C 139.810 214.537,138.687 214.160,138.305 213.961 C 137.923 213.762,137.259 213.600,136.829 213.600 C 136.399 213.600,135.936 213.420,135.800 213.200 C 135.664 212.980,135.034 212.800,134.400 212.800 C 133.766 212.800,133.136 212.620,133.000 212.400 C 132.864 212.180,132.324 212.000,131.800 212.000 C 131.276 212.000,130.736 211.820,130.600 211.600 C 130.464 211.380,129.924 211.200,129.400 211.200 C 128.876 211.200,128.336 211.020,128.200 210.800 C 128.064 210.580,127.423 210.400,126.776 210.400 C 126.129 210.400,125.600 210.220,125.600 210.000 C 125.600 209.780,125.148 209.600,124.595 209.600 C 124.042 209.600,123.277 209.435,122.895 209.234 C 122.513 209.032,121.513 208.568,120.674 208.202 C 114.531 205.526,116.136 200.574,124.255 197.148 C 125.752 196.517,127.119 196.000,127.293 196.000 C 127.612 196.000,130.814 194.645,132.095 193.967 C 132.477 193.765,133.152 193.600,133.595 193.600 C 134.038 193.600,134.400 193.420,134.400 193.200 C 134.400 192.980,134.850 192.800,135.400 192.800 C 135.950 192.800,136.400 192.620,136.400 192.400 C 136.400 192.180,136.749 192.000,137.176 192.000 C 137.603 192.000,138.064 191.820,138.200 191.600 C 138.336 191.380,138.887 191.200,139.424 191.200 C 139.961 191.200,140.400 191.020,140.400 190.800 C 140.400 190.580,140.762 190.400,141.205 190.400 C 141.648 190.400,142.323 190.241,142.705 190.047 C 143.087 189.852,143.850 189.516,144.400 189.300 C 144.950 189.084,145.850 188.727,146.400 188.507 C 146.950 188.287,147.850 187.927,148.400 187.707 C 148.950 187.487,149.895 187.103,150.500 186.854 C 152.535 186.015,153.393 185.683,154.800 185.193 C 155.570 184.925,156.963 184.367,157.896 183.953 C 158.828 183.539,159.726 183.200,159.891 183.200 C 160.377 183.200,172.954 178.337,174.495 177.553 C 174.877 177.359,175.464 177.200,175.800 177.200 C 176.136 177.200,176.723 177.041,177.105 176.847 C 177.487 176.652,178.250 176.316,178.800 176.100 C 179.350 175.884,180.295 175.503,180.900 175.254 C 181.505 175.004,182.405 174.644,182.900 174.454 C 183.395 174.263,184.295 173.903,184.900 173.654 C 185.505 173.404,186.495 172.999,187.100 172.753 C 187.705 172.508,188.513 172.148,188.895 171.953 C 189.277 171.759,189.952 171.600,190.395 171.600 C 190.838 171.600,191.200 171.459,191.200 171.287 C 191.200 171.115,192.055 170.725,193.100 170.420 C 194.145 170.115,195.270 169.737,195.600 169.579 C 196.401 169.197,198.409 168.363,199.400 168.000 C 199.840 167.839,200.650 167.516,201.200 167.283 C 201.750 167.051,204.180 166.118,206.600 165.212 C 209.020 164.305,211.630 163.318,212.400 163.018 C 213.170 162.718,214.880 162.079,216.200 161.598 C 217.520 161.116,219.005 160.560,219.500 160.361 C 221.913 159.393,222.654 159.079,223.295 158.753 C 223.677 158.559,224.352 158.400,224.795 158.400 C 225.238 158.400,225.600 158.220,225.600 158.000 C 225.600 157.780,225.949 157.600,226.376 157.600 C 226.803 157.600,227.264 157.420,227.400 157.200 C 227.536 156.980,227.999 156.800,228.429 156.800 C 228.859 156.800,229.523 156.641,229.905 156.447 C 230.287 156.252,231.095 155.892,231.700 155.647 C 232.305 155.401,233.295 154.996,233.900 154.746 C 234.505 154.497,235.360 154.161,235.800 154.000 C 236.240 153.839,237.140 153.479,237.800 153.200 C 239.255 152.585,239.910 152.333,243.000 151.193 C 244.320 150.706,246.163 149.969,247.096 149.554 C 248.028 149.139,248.976 148.800,249.201 148.800 C 249.426 148.800,249.923 148.631,250.305 148.425 C 250.687 148.219,252.350 147.574,254.000 146.993 C 255.650 146.411,257.360 145.787,257.800 145.604 C 260.869 144.332,263.285 143.670,264.000 143.905 C 264.330 144.014,265.050 144.193,265.600 144.303 " stroke="none" fill="#0484cc" fill-rule="evenodd"></path><path id="path3" d="M270.093 150.800 C 270.093 151.570,270.175 151.885,270.276 151.500 C 270.376 151.115,270.376 150.485,270.276 150.100 C 270.175 149.715,270.093 150.030,270.093 150.800 M269.029 159.029 C 268.881 159.615,268.838 160.172,268.932 160.266 C 269.027 160.360,269.224 159.958,269.371 159.371 C 269.519 158.785,269.562 158.228,269.468 158.134 C 269.373 158.040,269.176 158.442,269.029 159.029 M267.429 166.629 C 267.281 167.215,267.238 167.772,267.332 167.866 C 267.427 167.960,267.624 167.558,267.771 166.971 C 267.919 166.385,267.962 165.828,267.868 165.734 C 267.773 165.640,267.576 166.042,267.429 166.629 M117.755 202.212 C 117.390 202.769,117.164 203.298,117.253 203.387 C 117.342 203.476,117.718 203.020,118.089 202.374 C 118.914 200.936,118.669 200.817,117.755 202.212 M257.646 212.867 C 257.621 213.234,257.496 213.864,257.370 214.267 C 257.152 214.962,257.163 214.963,257.597 214.287 C 257.848 213.896,257.973 213.266,257.873 212.887 C 257.711 212.268,257.688 212.266,257.646 212.867 M256.629 217.429 C 256.481 218.015,256.438 218.572,256.532 218.666 C 256.627 218.760,256.824 218.358,256.971 217.771 C 257.119 217.185,257.162 216.628,257.068 216.534 C 256.973 216.440,256.776 216.842,256.629 217.429 M156.600 219.283 C 157.040 219.535,157.625 220.025,157.901 220.371 C 158.345 220.929,158.374 220.920,158.154 220.289 C 158.017 219.898,157.579 219.403,157.179 219.189 C 156.155 218.641,155.629 218.726,156.600 219.283 M159.044 223.800 C 159.373 225.271,159.602 225.590,159.594 224.567 C 159.591 224.145,159.405 223.530,159.182 223.200 C 158.885 222.762,158.848 222.924,159.044 223.800 M161.606 232.233 C 161.609 232.655,161.795 233.270,162.018 233.600 C 162.315 234.038,162.352 233.876,162.156 233.000 C 161.827 231.529,161.598 231.210,161.606 232.233 M252.629 236.229 C 252.481 236.815,252.438 237.372,252.532 237.466 C 252.627 237.560,252.824 237.158,252.971 236.571 C 253.119 235.985,253.162 235.428,253.068 235.334 C 252.973 235.240,252.776 235.642,252.629 236.229 M251.029 243.829 C 250.881 244.415,250.838 244.972,250.932 245.066 C 251.027 245.160,251.224 244.758,251.371 244.171 C 251.519 243.585,251.562 243.028,251.468 242.934 C 251.373 242.840,251.176 243.242,251.029 243.829 M200.400 246.146 C 200.400 246.256,200.940 246.730,201.600 247.200 C 202.260 247.670,202.800 247.964,202.800 247.854 C 202.800 247.744,202.260 247.270,201.600 246.800 C 200.940 246.330,200.400 246.036,200.400 246.146 M250.229 247.429 C 250.081 248.015,250.038 248.572,250.132 248.666 C 250.227 248.760,250.424 248.358,250.571 247.771 C 250.719 247.185,250.762 246.628,250.668 246.534 C 250.573 246.440,250.376 246.842,250.229 247.429 M166.456 248.000 C 166.456 248.330,166.611 248.960,166.800 249.400 C 167.017 249.904,167.144 249.978,167.144 249.600 C 167.144 249.270,166.989 248.640,166.800 248.200 C 166.583 247.696,166.456 247.622,166.456 248.000 M190.165 252.711 C 187.286 255.510,183.723 258.947,182.248 260.350 C 180.773 261.752,179.632 262.965,179.713 263.046 C 179.793 263.126,183.446 259.693,187.830 255.417 C 192.213 251.140,195.710 247.637,195.600 247.631 C 195.490 247.626,193.044 249.912,190.165 252.711 M248.629 255.029 C 248.481 255.615,248.438 256.172,248.532 256.266 C 248.627 256.360,248.824 255.958,248.971 255.371 C 249.119 254.785,249.162 254.228,249.068 254.134 C 248.973 254.040,248.776 254.442,248.629 255.029 M171.200 263.485 C 171.200 263.834,172.799 264.938,173.000 264.728 C 173.067 264.657,172.689 264.277,172.161 263.881 C 171.632 263.486,171.200 263.308,171.200 263.485 M175.400 264.400 L 174.600 264.744 175.400 264.744 C 175.840 264.744,176.560 264.589,177.000 264.400 L 177.800 264.056 177.000 264.056 C 176.560 264.056,175.840 264.211,175.400 264.400 M224.800 264.125 C 224.800 264.224,225.461 264.809,226.268 265.425 C 227.076 266.041,227.611 266.341,227.456 266.091 C 227.140 265.579,224.800 263.847,224.800 264.125 M237.463 272.500 C 237.699 272.885,240.854 272.880,241.463 272.494 C 241.717 272.332,240.880 272.200,239.602 272.200 C 238.325 272.200,237.362 272.335,237.463 272.500 " stroke="none" fill="#62b4de" fill-rule="evenodd"></path><path id="path4" d="M194.589 248.900 L 191.800 251.800 194.700 249.011 C 197.394 246.420,197.783 246.000,197.489 246.000 C 197.428 246.000,196.123 247.305,194.589 248.900 M181.785 261.300 L 179.800 263.400 181.900 261.415 C 183.055 260.323,184.000 259.378,184.000 259.315 C 184.000 259.017,183.629 259.349,181.785 261.300 " stroke="none" fill="#3aa4d5" fill-rule="evenodd"></path><path id="path5" d="M262.600 143.981 C 261.992 144.227,262.159 144.297,263.296 144.273 C 264.186 144.254,264.590 144.114,264.296 143.927 C 263.711 143.556,263.642 143.558,262.600 143.981 M270.534 152.400 C 270.534 154.050,270.605 154.725,270.691 153.900 C 270.778 153.075,270.778 151.725,270.691 150.900 C 270.605 150.075,270.534 150.750,270.534 152.400 M116.800 203.976 C 116.800 204.623,116.942 205.241,117.116 205.348 C 117.290 205.456,117.361 204.927,117.273 204.172 C 117.076 202.491,116.800 202.377,116.800 203.976 M255.849 222.615 C 255.712 222.973,255.615 223.566,255.634 223.933 C 255.653 224.300,255.827 224.069,256.021 223.420 C 256.398 222.158,256.265 221.533,255.849 222.615 M196.185 247.700 L 194.200 249.800 196.300 247.815 C 197.455 246.723,198.400 245.778,198.400 245.715 C 198.400 245.417,198.029 245.749,196.185 247.700 M250.854 246.667 C 250.825 247.144,250.696 247.864,250.570 248.267 C 250.352 248.961,250.364 248.962,250.796 248.288 C 251.047 247.897,251.175 247.177,251.081 246.688 C 250.909 245.801,250.909 245.801,250.854 246.667 M184.189 259.244 C 182.655 260.809,180.698 262.609,179.840 263.244 C 178.982 263.880,178.500 264.400,178.768 264.400 C 179.232 264.400,187.631 256.431,187.189 256.410 C 187.073 256.404,185.723 257.680,184.189 259.244 M171.362 264.300 C 171.781 264.795,172.411 265.186,172.762 265.168 C 173.304 265.142,173.309 265.103,172.800 264.916 C 172.470 264.795,171.840 264.404,171.400 264.048 C 170.607 263.406,170.606 263.408,171.362 264.300 M175.800 264.800 L 174.200 265.086 175.600 265.137 C 176.370 265.165,177.270 265.013,177.600 264.800 C 178.255 264.377,178.162 264.377,175.800 264.800 " stroke="none" fill="#2a9bd4" fill-rule="evenodd"></path></g></svg>